<?xml version="1.0" standalone="no"?>
<!DOCTYPE svg PUBLIC "-//W3C//DTD SVG 20010904//EN"
 "http://www.w3.org/TR/2001/REC-SVG-20010904/DTD/svg10.dtd">
<svg version="1.0" xmlns="http://www.w3.org/2000/svg"
 width="300.000000pt" height="300.000000pt" viewBox="0 0 300.000000 300.000000"
 preserveAspectRatio="xMidYMid meet">
<metadata>
Created by potrace 1.11, written by Peter Selinger 2001-2013
</metadata>
<g transform="translate(0.000000,300.000000) scale(0.100000,-0.100000)"
fill="#000000" stroke="none">
<path d="M920 2170 c-14 -4 -21 -8 -17 -9 4 -1 3 -10 -3 -20 -7 -14 -7 -22 0
-26 8 -5 7 -12 -2 -23 -10 -12 -10 -14 0 -8 15 9 16 -6 0 -22 -9 -9 -9 -12 0
-12 14 0 12 -21 -3 -32 -6 -5 -6 -8 2 -8 13 0 12 -18 -1 -39 -6 -10 -5 -12 2
-7 16 9 15 -7 0 -22 -9 -9 -9 -12 0 -12 14 0 12 -21 -3 -32 -6 -5 -5 -8 4 -8
11 0 11 -3 0 -17 -10 -11 -10 -14 -1 -9 15 9 15 1 1 -26 -8 -15 -8 -19 0 -14
14 9 10 -36 -4 -46 -6 -5 -6 -8 2 -8 13 0 12 -18 -1 -39 -6 -10 -5 -12 2 -7
16 9 15 -7 0 -22 -9 -9 -9 -12 0 -12 14 0 12 -21 -3 -32 -6 -5 -5 -8 4 -8 11
0 11 -3 0 -17 -10 -11 -10 -14 -1 -9 15 9 15 1 1 -26 -8 -15 -8 -19 0 -14 14
9 10 -36 -4 -46 -6 -5 -6 -8 2 -8 13 0 12 -18 -1 -39 -6 -10 -5 -12 2 -7 16 9
15 -7 0 -22 -9 -9 -9 -12 0 -12 14 0 12 -21 -3 -32 -6 -5 -6 -8 2 -8 13 0 12
-18 -1 -39 -6 -10 -5 -12 2 -7 16 9 15 -7 0 -22 -7 -7 -8 -12 -2 -12 12 0 13
-49 1 -67 -5 -7 -4 -13 2 -13 11 0 9 -19 -3 -39 -6 -10 -5 -12 2 -7 16 9 15
-7 0 -22 -7 -7 -8 -12 -2 -12 12 0 13 -49 1 -67 -5 -8 -3 -13 4 -13 8 0 7 -5
-2 -17 -10 -11 -10 -14 -1 -9 15 9 15 1 1 -26 -8 -15 -8 -19 0 -14 14 9 10
-36 -4 -46 -6 -5 -6 -8 2 -8 13 0 12 -18 -1 -39 -6 -10 -5 -12 2 -7 16 9 15
-7 0 -22 -9 -9 -9 -12 0 -12 14 0 12 -21 -3 -32 -6 -5 -5 -8 4 -8 11 0 11 -3
0 -17 -12 -14 -12 -15 0 -9 10 6 12 4 7 -10 -3 -11 -2 -25 3 -33 11 -17 41
-24 41 -9 0 6 7 8 15 4 8 -3 15 0 15 6 0 6 3 8 7 5 3 -4 12 -2 20 4 7 6 13 8
13 4 0 -4 7 -2 15 5 8 6 20 8 26 4 7 -4 9 -3 6 3 -6 9 45 28 66 24 4 0 7 4 7
10 0 5 4 7 10 4 15 -9 61 41 54 59 -4 10 -1 16 7 16 12 0 12 2 1 9 -15 9 -13
42 3 53 6 4 2 8 -9 8 -13 0 -16 4 -9 13 11 14 11 76 0 94 -4 6 -4 14 0 16 10
6 10 104 0 113 -3 4 -2 14 3 24 5 10 6 21 2 25 -4 5 1 5 11 2 11 -4 16 -3 12
3 -3 6 -13 10 -20 10 -11 0 -12 6 -5 25 7 18 6 25 -3 25 -9 0 -9 2 1 8 7 5 10
16 7 24 -4 9 -2 19 4 23 8 4 6 11 -4 21 -10 10 -12 21 -6 32 4 9 7 25 6 34 -2
13 5 11 35 -10 21 -15 36 -30 33 -34 -2 -5 5 -8 17 -8 12 0 18 -4 15 -10 -3
-5 0 -10 7 -10 7 0 24 -12 38 -28 14 -15 21 -21 15 -12 -6 10 -2 9 12 -4 13
-10 20 -23 16 -29 -3 -5 -1 -7 5 -4 14 9 43 -3 36 -14 -3 -5 1 -9 8 -9 8 0 21
-9 31 -20 18 -21 57 -27 57 -9 0 6 9 9 19 6 14 -3 18 -1 14 9 -3 8 1 14 9 14
7 0 19 9 26 21 7 12 16 18 19 15 3 -3 19 9 36 27 16 17 24 23 17 12 -7 -11 -1
-8 13 8 14 15 29 27 32 27 3 0 17 11 31 25 14 14 30 22 36 19 6 -4 8 -3 5 3
-4 6 0 16 7 22 11 9 16 9 22 0 4 -8 3 -9 -4 -5 -7 4 -12 3 -12 -2 0 -6 8 -13
18 -17 16 -6 16 -7 -1 -20 -16 -11 -16 -13 -2 -19 10 -3 13 -11 9 -18 -12 -19
-11 -78 1 -78 7 0 7 -3 0 -8 -14 -10 -17 -52 -4 -52 6 0 7 -6 2 -12 -11 -19
-10 -122 2 -130 6 -5 6 -8 -2 -8 -6 0 -9 -9 -5 -22 4 -16 2 -19 -9 -14 -8 4
-6 1 4 -7 10 -8 14 -17 10 -20 -10 -7 -8 -131 3 -148 4 -8 3 -9 -4 -5 -15 9
-15 3 0 -29 6 -14 19 -25 29 -25 10 0 21 -5 24 -10 4 -6 10 -8 15 -5 5 3 11 1
15 -5 4 -6 11 -8 16 -5 5 4 9 1 9 -5 0 -6 4 -9 8 -6 5 3 20 -1 35 -9 15 -8 27
-12 27 -9 0 2 14 -2 30 -11 17 -9 30 -12 30 -8 0 4 6 -1 13 -10 11 -14 14 -14
31 -2 11 8 16 15 12 15 -5 0 -3 7 4 15 9 11 9 15 1 15 -7 0 -9 5 -4 13 11 18
12 36 2 43 -14 8 -11 26 4 18 9 -5 9 -4 0 6 -9 9 -9 19 -2 33 8 13 8 17 1 13
-6 -4 -10 2 -9 14 1 11 6 20 12 20 6 0 7 3 0 8 -13 9 -13 45 0 54 6 5 6 11 -2
19 -9 9 -9 18 -2 32 8 13 8 17 1 13 -6 -4 -10 2 -9 14 1 11 6 20 12 20 6 0 7
3 0 8 -13 9 -13 45 0 54 6 5 6 11 -2 19 -8 8 -9 18 -3 30 7 11 7 20 0 24 -5 3
-10 11 -10 16 0 6 5 7 12 3 7 -5 8 -3 3 7 -13 20 -13 49 -1 49 7 0 7 3 1 8 -5
4 -10 14 -10 22 0 8 5 18 10 22 6 5 6 8 -1 8 -14 0 -13 52 1 62 6 5 5 8 -4 8
-10 0 -11 3 -2 14 8 10 9 16 1 21 -14 9 -13 28 3 19 9 -5 9 -4 0 6 -9 9 -9 19
-2 33 8 13 8 17 1 13 -6 -4 -10 2 -9 14 1 11 6 20 12 20 6 0 7 3 0 8 -13 9
-13 45 0 54 6 5 6 11 -2 19 -9 9 -9 18 -2 32 8 13 8 17 1 13 -6 -4 -10 2 -9
14 1 11 6 20 12 20 6 0 7 3 0 8 -13 9 -13 45 0 54 6 5 6 11 -2 19 -8 8 -9 18
-3 30 7 11 7 20 0 24 -5 3 -10 11 -10 16 0 6 5 7 12 3 7 -5 8 -3 3 7 -13 20
-13 49 -1 49 7 0 7 3 1 8 -5 4 -10 14 -10 22 0 8 5 18 10 22 6 5 6 8 -1 8 -14
0 -13 52 1 62 6 5 5 8 -3 8 -10 0 -10 5 -1 21 8 15 8 19 0 15 -6 -4 -11 0 -11
8 0 9 -9 16 -20 16 -11 0 -20 -7 -20 -16 0 -8 -4 -13 -9 -10 -5 3 -12 -1 -15
-10 -3 -8 -10 -12 -16 -9 -5 3 -10 2 -10 -4 0 -16 -42 -51 -53 -44 -6 3 -7 1
-3 -6 4 -6 0 -14 -11 -18 -10 -4 -24 -15 -32 -26 -7 -10 -19 -16 -27 -13 -9 3
-11 0 -7 -11 5 -13 2 -15 -12 -9 -11 4 -16 4 -12 0 10 -10 -22 -44 -41 -44 -9
0 -12 -3 -9 -7 9 -8 -31 -36 -42 -29 -5 3 -8 -2 -7 -12 0 -9 -5 -16 -11 -15
-7 2 -13 -4 -13 -12 0 -8 -4 -15 -10 -15 -16 0 -19 -2 -73 -53 -128 -120 -136
-124 -172 -101 -14 9 -22 21 -18 27 3 6 1 7 -5 3 -7 -4 -12 -2 -12 3 0 6 -6
11 -13 11 -14 0 -53 41 -49 52 1 4 -6 4 -15 1 -10 -4 -14 -2 -9 5 3 6 -3 14
-16 18 -13 4 -38 23 -55 42 -18 20 -33 33 -33 28 0 -4 -12 5 -27 21 -16 15
-27 34 -26 43 2 9 0 10 -3 3 -3 -7 -10 -13 -15 -13 -6 0 -8 4 -4 9 3 5 -4 12
-15 16 -11 4 -17 11 -14 17 4 7 2 8 -4 4 -7 -4 -26 7 -45 26 -18 18 -44 41
-57 51 -14 10 -19 15 -11 11 9 -5 12 -3 7 4 -4 6 -14 8 -23 5 -11 -4 -14 -3
-9 5 4 7 1 12 -9 12 -9 0 -13 5 -10 10 3 6 -3 10 -14 10 -21 0 -46 32 -34 44
7 7 7 7 -27 -4z"/>
</g>
</svg>
