<?xml version="1.0" standalone="no"?>
<!DOCTYPE svg PUBLIC "-//W3C//DTD SVG 20010904//EN"
 "http://www.w3.org/TR/2001/REC-SVG-20010904/DTD/svg10.dtd">
<svg version="1.0" xmlns="http://www.w3.org/2000/svg"
 width="551.000000pt" height="551.000000pt" viewBox="0 0 551.000000 551.000000"
 preserveAspectRatio="xMidYMid meet">
<metadata>
Created by potrace 1.11, written by Peter Selinger 2001-2013
</metadata>
<g transform="translate(0.000000,551.000000) scale(0.100000,-0.100000)"
fill="#000000" stroke="none">
<path d="M4719 5243 c-13 -16 -12 -17 4 -4 9 7 17 15 17 17 0 8 -8 3 -21 -13z"/>
<path d="M792 5206 c-2 -17 -8 -34 -15 -38 -7 -4 -7 -8 -1 -8 12 0 13 -89 1
-107 -5 -7 -4 -13 0 -13 5 0 9 -25 9 -55 0 -30 -3 -52 -8 -49 -4 3 -8 0 -8 -5
0 -6 4 -11 8 -11 5 0 8 -33 8 -74 0 -41 -4 -72 -8 -70 -4 3 -8 0 -8 -5 0 -6 4
-11 9 -11 11 0 9 -90 -2 -107 -5 -7 -4 -13 1 -13 12 0 12 -32 -1 -47 -6 -9 -6
-13 2 -13 12 0 10 -27 -2 -47 -5 -7 -4 -13 0 -13 11 0 11 -90 0 -107 -5 -7 -4
-13 0 -13 5 0 9 -25 9 -55 0 -30 -3 -52 -8 -49 -4 3 -8 0 -8 -5 0 -6 4 -11 8
-11 4 0 8 -40 8 -89 0 -50 -3 -88 -8 -85 -5 3 -5 10 -2 16 4 7 2 8 -4 4 -6 -4
-8 -14 -5 -23 4 -10 2 -14 -4 -10 -5 3 -10 -1 -10 -9 0 -10 4 -11 11 -4 18 18
21 11 22 -65 1 -41 -3 -72 -7 -69 -5 3 -6 10 -3 16 4 7 2 8 -4 4 -6 -4 -8 -14
-5 -23 4 -10 2 -14 -4 -10 -5 3 -10 -1 -10 -9 0 -10 4 -11 11 -4 18 18 21 11
22 -65 1 -41 -3 -72 -7 -69 -5 3 -6 10 -3 16 4 7 2 8 -4 4 -6 -4 -8 -14 -5
-23 4 -10 2 -14 -4 -10 -5 3 -10 -1 -10 -9 0 -10 4 -11 11 -4 18 18 21 11 22
-65 1 -41 -3 -72 -7 -69 -5 3 -6 10 -3 16 4 7 2 8 -4 4 -6 -4 -8 -14 -5 -23 5
-12 3 -14 -8 -8 -8 4 -11 5 -7 0 4 -4 2 -15 -5 -23 -8 -11 -8 -14 0 -9 6 4 14
1 17 -5 3 -7 4 -4 3 6 -1 10 3 21 8 23 12 4 14 -56 2 -74 -5 -7 -4 -13 1 -13
12 0 12 -32 -1 -47 -6 -9 -6 -13 2 -13 12 0 10 -27 -2 -47 -5 -7 -4 -13 0 -13
11 0 11 -90 0 -107 -5 -7 -4 -13 0 -13 5 0 9 -25 9 -55 0 -30 -3 -52 -8 -49
-4 3 -8 0 -8 -5 0 -6 4 -11 9 -11 11 0 9 -90 -2 -107 -5 -7 -4 -13 1 -13 12 0
12 -32 -1 -47 -6 -9 -6 -13 2 -13 12 0 10 -27 -2 -47 -5 -7 -4 -13 0 -13 11 0
11 -90 0 -107 -5 -7 -4 -13 0 -13 5 0 9 -25 9 -55 0 -30 -3 -52 -8 -49 -4 3
-8 0 -8 -5 0 -6 4 -11 9 -11 11 0 9 -90 -2 -107 -5 -7 -4 -13 1 -13 12 0 12
-32 -1 -47 -6 -9 -6 -13 2 -13 12 0 10 -27 -2 -47 -5 -7 -4 -13 0 -13 11 0 11
-90 0 -107 -5 -7 -5 -13 0 -13 4 0 9 -31 9 -70 1 -38 -3 -67 -8 -64 -4 3 -5
10 -2 16 4 7 2 8 -4 4 -6 -4 -8 -14 -5 -23 4 -10 2 -14 -4 -10 -5 3 -10 -1
-10 -9 0 -10 4 -11 11 -4 18 18 21 11 22 -65 1 -41 -3 -72 -7 -69 -5 3 -6 10
-3 16 4 7 2 8 -4 4 -6 -4 -8 -14 -5 -23 4 -10 2 -14 -4 -10 -5 3 -10 -1 -10
-9 0 -10 4 -11 11 -4 18 18 21 11 22 -65 1 -41 -3 -72 -7 -69 -5 3 -6 10 -3
16 4 7 2 8 -4 4 -6 -4 -8 -14 -5 -23 4 -10 2 -14 -4 -10 -5 3 -10 -1 -10 -9 0
-10 4 -11 11 -4 18 18 21 11 22 -65 1 -41 -3 -72 -7 -69 -5 3 -6 10 -3 16 4 7
2 8 -4 4 -6 -4 -8 -14 -5 -23 5 -12 3 -14 -8 -8 -8 4 -11 5 -7 0 4 -4 2 -15
-4 -24 -10 -12 -8 -12 8 2 11 9 22 17 25 17 2 0 4 -27 5 -60 0 -32 -3 -57 -8
-54 -4 3 -8 0 -8 -5 0 -6 4 -11 9 -11 11 0 9 -90 -2 -107 -5 -7 -4 -13 1 -13
12 0 12 -32 -1 -47 -6 -9 -6 -13 2 -13 12 0 10 -27 -2 -47 -5 -7 -4 -13 0 -13
11 0 11 -90 0 -107 -5 -7 -4 -13 0 -13 5 0 9 -25 9 -55 0 -30 -3 -52 -8 -49
-4 3 -8 0 -8 -5 0 -6 4 -11 8 -11 5 0 8 -33 8 -74 0 -41 -4 -72 -8 -70 -4 3
-8 0 -8 -5 0 -6 4 -11 9 -11 11 0 9 -90 -2 -107 -5 -7 -4 -13 1 -13 12 0 12
-32 -1 -48 -6 -8 -6 -12 2 -12 12 0 10 -27 -2 -48 -5 -6 -4 -12 1 -12 12 0 12
-32 -1 -48 -5 -6 -5 -12 0 -12 16 0 13 -44 -5 -65 -9 -11 -10 -14 -2 -7 17 15
34 16 24 1 -4 -7 4 -10 22 -8 16 2 35 -1 43 -5 9 -6 12 -5 7 2 -3 6 -2 13 4
17 5 3 10 1 10 -6 0 -7 7 -4 15 7 8 10 15 16 15 11 0 -4 12 -1 28 6 15 8 33
12 40 10 6 -3 12 1 12 7 0 9 4 9 15 0 13 -11 18 -11 28 0 10 10 9 12 -5 7 -10
-4 -18 -2 -18 3 0 10 21 14 49 11 8 -2 10 3 5 11 -4 7 -4 10 1 6 4 -4 14 -3
22 3 7 6 13 8 13 4 0 -4 7 -2 15 5 8 7 15 9 15 5 0 -4 11 0 25 9 14 9 25 14
25 10 0 -4 7 -1 15 6 8 7 15 9 15 5 0 -4 7 -2 15 5 8 7 15 10 15 6 0 -4 12 0
28 7 15 8 33 12 41 9 9 -3 11 0 6 9 -5 8 -5 11 0 7 4 -4 17 -3 29 3 20 10 20
10 2 -5 -11 -9 -15 -16 -8 -16 7 0 17 9 24 20 7 11 20 20 30 20 9 0 20 5 23
10 4 6 12 7 18 3 18 -11 38 -12 31 -2 -3 5 -10 6 -16 3 -6 -4 -8 -2 -5 4 4 5
17 8 29 4 16 -4 19 -2 14 9 -4 8 0 5 9 -6 17 -20 17 -20 10 3 -3 12 -3 22 2
21 4 -1 10 0 13 1 3 1 12 3 20 5 37 8 45 10 50 17 3 4 15 9 25 11 11 2 30 9
43 15 12 7 22 9 22 5 0 -4 5 -2 12 5 7 7 17 8 29 2 12 -7 20 -6 25 2 4 6 3 8
-4 4 -6 -3 -13 -2 -17 4 -3 5 -2 10 4 10 6 0 14 12 17 28 4 15 12 30 18 34 8
5 7 8 -1 8 -17 0 -16 27 1 33 7 3 16 15 19 26 3 12 1 19 -4 15 -5 -3 -9 -12
-9 -20 0 -8 -4 -14 -8 -14 -4 0 -8 15 -8 34 0 19 4 32 8 30 5 -3 5 -10 2 -16
-4 -7 -2 -8 4 -4 12 7 5 36 -9 36 -5 0 -9 5 -9 11 0 5 6 7 13 3 10 -6 10 -4 0
7 -22 22 -14 33 8 13 22 -19 22 -19 8 4 -8 12 -16 22 -19 22 -3 0 -6 11 -6 24
0 14 4 22 8 20 4 -3 8 -11 8 -19 0 -8 4 -16 10 -20 5 -3 5 7 -1 25 -6 16 -15
30 -20 30 -5 0 -9 5 -9 11 0 5 5 7 12 3 8 -5 8 -3 2 7 -5 8 -9 52 -10 99 0 64
3 88 14 96 12 9 13 13 2 19 -9 5 -11 4 -6 -3 4 -7 2 -12 -3 -12 -15 0 -14 13
2 29 10 11 10 13 0 7 -7 -4 -13 -3 -13 3 0 5 9 13 20 16 23 7 27 22 5 22 -8 0
-12 -4 -9 -9 3 -4 1 -8 -4 -8 -5 0 -9 15 -9 34 1 19 5 33 9 30 4 -3 6 -10 4
-17 -1 -7 -1 -9 1 -4 3 4 9 5 13 2 5 -3 12 0 16 6 4 7 3 9 -3 6 -5 -3 -17 3
-26 14 -20 23 -22 33 -4 23 10 -6 10 -4 0 7 -22 22 -14 33 8 13 22 -19 22 -19
8 4 -8 12 -16 22 -19 22 -3 0 -6 11 -6 24 0 14 4 22 8 20 4 -3 8 -11 8 -19 0
-8 4 -16 10 -20 5 -3 5 7 -1 25 -6 16 -14 30 -18 30 -4 0 -8 7 -8 15 0 10 6
14 16 10 13 -4 12 -2 -2 9 -18 14 -24 32 -7 21 6 -3 10 -1 10 4 0 6 -4 11 -9
11 -4 0 -8 26 -7 58 1 41 5 56 15 54 7 -1 10 2 6 8 -3 6 -11 8 -16 5 -5 -4 -9
-1 -9 4 0 6 5 11 10 11 6 0 10 5 10 11 0 5 -4 8 -8 5 -5 -3 -9 13 -9 34 0 22
5 40 11 40 8 0 8 2 0 8 -18 11 -13 44 5 37 13 -4 12 -2 -1 9 -19 14 -25 32 -8
21 6 -3 10 -1 10 4 0 6 -4 11 -9 11 -4 0 -8 26 -7 58 1 41 5 56 15 54 7 -1 10
2 6 8 -3 6 -11 8 -16 5 -5 -4 -9 -1 -9 4 0 6 5 11 10 11 6 0 10 5 10 11 0 5
-4 8 -8 5 -5 -3 -9 13 -9 34 0 22 5 40 11 40 8 0 8 2 0 8 -13 8 -15 82 -2 82
4 0 8 5 8 11 0 5 -5 7 -11 3 -7 -4 -10 -1 -7 7 3 8 11 13 17 11 7 -1 10 2 6 8
-3 6 -11 8 -16 5 -5 -4 -9 -1 -9 4 0 6 5 11 10 11 6 0 10 5 10 11 0 5 -4 8 -9
4 -6 -3 -9 4 -8 15 1 11 8 20 17 21 13 0 13 1 -1 7 -12 6 -15 24 -15 84 0 62
3 75 13 66 10 -8 12 -7 7 6 -3 9 -10 16 -15 16 -5 0 -9 5 -9 11 0 5 6 7 13 3
10 -6 10 -4 0 7 -22 22 -14 33 8 13 22 -19 22 -19 8 4 -8 12 -16 22 -19 22 -3
0 -6 11 -6 24 0 14 4 22 8 20 4 -3 8 -11 8 -19 0 -8 4 -16 10 -20 5 -3 5 7 -1
25 -6 16 -15 30 -19 30 -5 0 -8 14 -8 30 1 20 6 30 17 31 14 0 14 1 1 7 -23
11 -24 49 -1 55 11 2 24 0 29 -5 11 -11 10 18 -3 45 -6 15 -10 16 -17 5 -6 -8
-7 -5 -2 12 6 23 6 24 -12 10 -18 -14 -18 -14 -5 3 13 17 16 17 26 3 8 -10 15
-12 22 -5 10 10 42 -17 42 -36 0 -5 5 -11 12 -14 8 -2 9 1 3 10 -7 12 -5 12 9
0 9 -7 17 -19 17 -27 0 -7 5 -16 12 -20 7 -5 8 -3 3 5 -6 10 -3 11 14 1 12 -6
19 -16 15 -22 -4 -6 -1 -9 6 -6 7 2 26 -9 42 -24 16 -15 34 -28 40 -28 7 0 6
-5 -2 -15 -8 -9 -9 -15 -2 -15 6 0 14 5 17 11 9 14 45 -19 39 -36 -3 -7 2 -15
10 -18 11 -4 13 -1 9 11 -4 10 4 6 19 -10 14 -15 29 -24 32 -21 3 4 6 -2 6
-12 0 -10 3 -15 6 -12 9 9 46 -12 39 -22 -5 -8 19 -23 40 -25 6 -1 10 -11 9
-24 0 -12 2 -20 4 -17 3 3 14 -2 24 -12 10 -9 18 -13 18 -8 0 4 -8 14 -17 22
-11 9 -12 12 -3 7 29 -14 40 -26 33 -38 -12 -18 -12 -36 -1 -36 6 0 8 6 5 14
-10 24 17 25 45 1 15 -13 25 -25 22 -28 -3 -2 9 -10 26 -17 16 -7 30 -17 30
-22 0 -5 -6 -6 -12 -1 -19 11 -39 13 -32 2 3 -5 9 -7 14 -4 5 3 11 1 15 -4 3
-6 12 -8 20 -4 8 3 15 0 15 -6 0 -6 7 -11 15 -11 9 0 18 -7 21 -15 4 -8 10
-13 14 -10 5 3 15 -3 22 -13 7 -10 25 -27 41 -37 20 -13 26 -23 22 -39 -5 -19
-5 -19 5 -3 11 17 30 15 30 -4 0 -6 -6 -7 -12 -3 -10 6 -10 4 -2 -7 6 -8 10
-22 9 -32 -2 -9 1 -15 6 -11 5 3 7 9 4 14 -3 4 2 13 10 20 12 10 15 9 15 -8 0
-11 7 -23 16 -26 26 -10 29 -7 8 10 -10 8 -12 12 -4 8 28 -14 50 -37 43 -47
-4 -7 0 -8 11 -4 14 6 17 3 12 -8 -3 -9 -2 -13 4 -10 13 8 52 -19 43 -29 -4
-4 0 -4 9 -1 9 4 19 13 22 21 3 9 11 12 16 9 8 -5 7 -12 -2 -23 -12 -15 -11
-16 4 -4 9 8 15 19 12 27 -3 7 0 16 7 21 8 5 10 3 4 -7 -4 -8 9 4 30 26 20 22
34 34 30 28 -3 -7 -1 -13 4 -13 6 0 11 8 11 18 0 14 2 15 10 2 8 -12 10 -10
10 9 0 15 5 21 13 18 8 -3 20 -1 28 5 11 8 10 9 -4 4 -10 -3 -16 -2 -13 3 9
14 54 19 67 7 9 -8 10 -8 5 1 -3 6 0 14 6 16 7 3 -2 4 -19 3 -41 -4 -42 2 -3
15 16 6 28 15 25 19 -5 7 18 22 40 25 6 0 9 6 8 13 -4 15 9 16 24 1 9 -9 11
-7 7 8 -4 14 5 27 33 49 21 16 44 27 52 26 8 -2 10 1 5 10 -4 7 2 5 13 -5 16
-14 23 -15 29 -6 4 8 3 10 -5 5 -6 -4 -14 0 -18 10 -4 11 -2 19 6 22 7 2 24
15 39 28 51 45 56 48 75 51 17 3 18 1 6 -14 -13 -16 -12 -17 4 -4 12 10 14 17
7 26 -11 13 3 31 30 37 7 2 25 15 38 31 13 15 28 25 33 21 5 -3 9 0 9 6 0 7 6
10 13 7 8 -3 20 -1 28 5 11 8 10 9 -3 4 -10 -3 -18 -2 -18 3 0 16 13 20 34 9
27 -15 48 -19 40 -7 -3 5 -9 7 -14 4 -4 -3 -13 1 -19 9 -9 10 -8 16 4 26 8 7
15 10 15 7 0 -3 15 10 34 29 19 19 40 34 48 34 11 0 11 -2 0 -9 -11 -7 -11 -9
1 -14 11 -4 14 1 12 19 -1 13 4 29 11 35 9 7 14 8 14 1 0 -6 -5 -12 -12 -14
-9 -3 -9 -6 0 -12 7 -4 14 3 18 19 6 24 36 49 59 50 6 0 10 6 10 13 0 6 5 12
10 13 6 1 19 5 30 11 18 8 19 8 3 -5 -10 -8 -15 -17 -11 -20 3 -4 12 -2 19 4
7 6 14 6 18 1 3 -6 -2 -16 -11 -23 -9 -8 -14 -9 -10 -3 3 6 0 11 -8 11 -17 0
-21 -16 -5 -18 6 -1 14 -2 19 -3 15 -2 26 -16 12 -16 -8 0 -9 -5 -2 -17 14
-27 13 -32 -4 -49 -8 -9 -15 -20 -15 -27 0 -6 6 -3 13 6 10 14 12 0 12 -82 0
-68 -3 -97 -11 -94 -6 2 -11 -3 -11 -11 0 -8 5 -12 11 -10 7 3 11 -24 12 -81
0 -69 -2 -82 -13 -73 -11 8 -12 7 -7 -6 3 -9 10 -16 15 -16 5 0 9 -5 9 -11 0
-5 -4 -8 -8 -5 -5 3 -9 -1 -9 -9 0 -8 4 -12 9 -9 16 10 7 -15 -9 -26 -17 -11
-17 -11 0 -6 21 7 22 -1 2 -20 -8 -9 -15 -20 -15 -27 0 -6 6 -3 13 6 10 14 12
0 12 -82 0 -68 -3 -97 -11 -94 -6 2 -11 -3 -11 -11 0 -8 5 -12 11 -10 7 3 11
-24 12 -81 0 -69 -2 -82 -13 -73 -11 8 -12 7 -7 -6 3 -9 10 -16 15 -16 5 0 9
-5 9 -11 0 -5 -4 -8 -8 -5 -5 3 -9 -1 -9 -9 0 -8 4 -12 9 -9 16 10 7 -15 -9
-26 -17 -11 -17 -11 0 -6 21 7 22 -1 2 -20 -8 -9 -15 -20 -15 -27 0 -6 6 -3
13 6 10 14 12 0 12 -82 0 -68 -3 -97 -11 -94 -6 2 -11 -3 -11 -11 0 -8 5 -12
11 -10 7 3 11 -24 12 -81 0 -69 -2 -82 -13 -73 -11 8 -12 7 -7 -6 3 -9 10 -16
15 -16 5 0 9 -5 9 -11 0 -5 -4 -8 -8 -5 -5 3 -9 -1 -9 -9 0 -8 4 -12 9 -9 16
10 7 -15 -9 -26 -17 -11 -17 -11 0 -6 21 7 22 -1 2 -20 -8 -9 -15 -20 -15 -27
0 -6 6 -3 13 6 10 14 12 0 12 -82 0 -65 -3 -97 -10 -95 -6 3 -11 -5 -12 -16
-1 -11 3 -20 8 -20 6 0 7 5 4 10 -3 6 -1 10 4 10 6 0 10 -11 9 -24 -2 -19 -5
-22 -15 -14 -10 8 -12 7 -7 -6 3 -9 10 -16 15 -16 5 0 9 -5 9 -11 0 -5 -4 -8
-8 -5 -5 3 -9 -1 -9 -9 0 -8 4 -12 9 -9 19 12 6 -15 -14 -30 l-23 -17 23 11
c26 13 29 3 5 -17 -15 -12 -15 -14 -2 -10 13 4 15 -7 15 -83 -1 -49 2 -86 6
-84 5 3 11 -2 14 -10 3 -9 10 -13 15 -11 5 3 21 -1 37 -9 16 -8 32 -12 36 -9
6 6 10 -11 7 -34 -2 -17 16 -25 25 -12 4 7 3 9 -4 5 -6 -4 -10 1 -9 13 1 11 6
17 12 13 5 -4 12 -7 15 -8 18 -3 47 -20 58 -33 10 -14 11 -13 6 4 -5 18 -4 18
8 4 7 -9 21 -15 31 -13 10 1 27 -6 38 -17 10 -10 24 -19 29 -19 6 0 10 -5 10
-12 0 -6 3 -8 7 -4 5 4 -1 15 -12 23 -17 14 -18 15 -2 9 10 -3 21 -6 23 -6 2
0 4 -7 4 -15 0 -8 5 -15 11 -15 5 0 7 5 3 11 -5 8 -1 8 13 0 11 -6 24 -7 28
-3 5 4 5 -1 2 -10 -7 -19 8 -25 18 -8 4 6 15 4 29 -5 12 -8 26 -12 29 -8 4 3
7 1 7 -5 0 -6 -8 -12 -17 -14 -15 -3 -14 -5 5 -10 12 -3 20 -2 17 2 -9 15 16
23 28 10 9 -10 9 -11 0 -6 -7 4 -13 2 -13 -3 0 -6 7 -11 15 -11 8 0 15 5 15
10 0 6 6 5 14 -2 10 -9 11 -15 2 -20 -7 -5 -7 -8 0 -8 5 0 15 5 21 11 8 8 18
6 36 -6 15 -9 31 -14 36 -11 12 8 33 -28 23 -39 -4 -5 -1 -5 6 -1 7 4 10 11 7
16 -4 7 24 6 33 0 1 -2 7 -4 12 -5 6 -1 12 -4 15 -5 6 -3 22 -7 35 -9 6 0 10
-6 10 -12 0 -8 -5 -7 -15 1 -13 11 -14 10 -9 -4 4 -10 13 -15 20 -12 8 3 14 2
14 -2 0 -5 7 -17 15 -28 15 -18 15 -18 8 0 -5 14 -3 17 7 11 9 -5 11 -4 6 4
-4 6 -11 9 -16 6 -4 -3 -11 2 -14 11 -4 10 -2 14 6 10 7 -3 21 -9 31 -12 12
-4 16 -13 12 -28 -2 -11 -2 -15 1 -8 3 6 10 10 15 7 5 -4 6 1 2 10 -5 16 -4
16 25 1 18 -9 33 -12 37 -6 3 5 13 7 23 4 14 -5 15 -4 2 5 -14 10 -13 12 9 15
5 0 13 5 18 9 4 5 4 8 -2 7 -24 -5 -27 1 -9 15 12 10 13 13 3 10 -13 -5 -15
10 -15 118 1 85 4 123 12 120 6 -2 11 3 11 11 0 8 -5 12 -11 10 -8 -3 -11 43
-11 150 0 107 3 152 11 149 6 -2 11 3 11 11 0 8 -5 12 -11 10 -7 -3 -11 15
-12 50 0 35 4 52 11 50 6 -3 11 5 12 16 1 11 -3 20 -8 20 -6 0 -7 -4 -4 -10 3
-5 2 -10 -2 -10 -5 0 -8 42 -8 94 0 63 4 92 11 89 6 -2 11 3 11 11 0 8 -5 12
-11 10 -8 -3 -11 43 -11 150 0 107 3 152 11 149 6 -2 11 3 11 11 0 8 -5 12
-11 10 -7 -3 -11 15 -12 50 0 35 4 52 11 50 6 -3 11 5 12 16 1 11 -3 20 -8 20
-6 0 -7 -4 -4 -10 3 -5 2 -10 -2 -10 -5 0 -8 42 -8 94 0 63 4 92 11 89 6 -2
11 3 11 11 0 8 -5 12 -11 10 -8 -3 -11 43 -11 150 0 107 3 152 11 149 6 -2 11
3 11 11 0 8 -5 12 -11 10 -7 -3 -11 15 -12 50 0 35 4 52 11 50 6 -3 11 5 12
16 1 11 -3 20 -8 20 -6 0 -7 -4 -4 -10 3 -5 2 -10 -2 -10 -5 0 -8 42 -8 94 0
63 4 92 11 89 6 -2 11 3 11 11 0 8 -5 12 -11 10 -8 -3 -11 43 -11 150 0 107 3
152 11 149 6 -2 11 3 11 11 0 8 -5 12 -11 10 -7 -3 -11 15 -12 50 0 35 4 52
11 50 6 -3 11 5 12 16 1 11 -3 20 -8 20 -6 0 -7 -4 -4 -10 3 -5 2 -10 -2 -10
-5 0 -8 42 -8 94 0 63 4 92 11 89 6 -2 11 3 11 11 0 8 -5 12 -11 10 -8 -3 -11
43 -11 150 0 107 3 152 11 149 6 -2 11 3 11 11 0 8 -5 12 -11 10 -7 -3 -11 15
-12 50 0 35 4 52 11 50 6 -3 11 5 12 16 1 11 -3 20 -8 20 -6 0 -7 -4 -4 -10 3
-5 2 -10 -2 -10 -5 0 -8 42 -8 94 0 63 4 92 11 89 6 -2 11 3 11 11 0 8 -5 12
-11 10 -8 -3 -11 43 -11 150 0 107 3 152 11 149 6 -2 11 3 11 11 0 8 -5 12
-11 10 -7 -3 -11 15 -12 50 0 35 4 52 11 50 6 -3 11 5 12 16 1 11 -3 20 -8 20
-6 0 -7 -4 -4 -10 3 -5 2 -10 -2 -10 -5 0 -8 42 -8 94 0 63 4 92 11 89 6 -2
11 3 11 11 0 8 -5 12 -11 10 -8 -3 -11 43 -11 150 0 107 3 152 11 149 6 -2 11
3 11 11 0 8 -5 12 -12 10 -12 -5 -14 74 -1 94 4 7 3 19 -4 26 -8 11 -8 15 2
19 10 4 10 6 1 6 -7 1 -13 11 -13 24 -1 62 -25 57 -111 -22 -50 -47 -77 -57
-65 -24 4 8 1 11 -5 8 -6 -4 -8 -14 -4 -22 6 -18 -23 -56 -36 -47 -5 3 -9 0
-9 -6 0 -6 -4 -8 -10 -5 -6 3 -10 0 -10 -8 0 -8 -9 -22 -20 -32 -11 -10 -20
-15 -20 -11 0 4 -12 -6 -26 -23 -26 -31 -74 -65 -60 -42 4 6 2 11 -3 11 -10 0
-15 -13 -13 -32 1 -3 -6 -12 -15 -20 -12 -9 -15 -9 -9 0 4 6 3 12 -3 12 -5 0
-13 -9 -16 -21 -5 -16 -9 -18 -21 -8 -12 9 -13 9 -9 -2 3 -8 -2 -23 -11 -34
-8 -11 -13 -13 -9 -5 4 8 -3 4 -15 -10 -12 -14 -27 -25 -34 -25 -6 -1 -10 -6
-9 -13 2 -7 -6 -12 -18 -12 -11 0 -18 -4 -15 -9 3 -5 -19 -30 -48 -55 -37 -31
-57 -43 -62 -35 -5 8 -3 9 7 4 8 -5 10 -4 6 0 -4 5 -14 10 -23 11 -11 2 -12
-1 -4 -11 8 -9 7 -17 -5 -29 -9 -9 -21 -16 -27 -16 -6 0 -8 -3 -5 -7 7 -7 -22
-32 -37 -33 -6 0 -2 6 8 13 16 12 16 13 -2 13 -14 0 -19 -7 -18 -26 0 -15 -5
-24 -12 -22 -7 1 -12 -2 -12 -8 0 -5 -5 -10 -11 -10 -5 0 -8 4 -5 9 7 11 -20
8 -31 -3 -4 -4 -2 -6 6 -4 7 2 16 -3 19 -11 2 -8 0 -11 -6 -7 -6 3 -13 -3 -17
-13 -4 -12 -12 -18 -21 -14 -8 3 -14 -1 -14 -10 0 -8 -25 -31 -55 -51 -30 -20
-55 -39 -55 -42 0 -4 7 -1 15 6 8 7 15 10 15 7 0 -2 -17 -17 -37 -33 -20 -15
-33 -23 -30 -17 4 6 1 13 -6 16 -10 4 -13 -2 -9 -18 3 -17 -2 -25 -17 -30 -12
-3 -21 -11 -21 -16 0 -5 -7 -9 -15 -9 -8 0 -14 -3 -14 -7 3 -21 -3 -24 -18
-12 -13 11 -15 11 -9 1 5 -8 1 -21 -9 -32 -14 -16 -22 -17 -39 -8 -17 8 -19 8
-9 -2 10 -11 7 -19 -15 -39 -15 -14 -30 -25 -34 -23 -4 1 -12 -8 -18 -19 -7
-12 -18 -18 -26 -15 -10 4 -14 0 -12 -12 2 -9 -3 -16 -9 -14 -7 1 -13 -4 -13
-10 0 -9 -4 -8 -10 2 -8 12 -10 11 -10 -7 0 -12 -4 -25 -10 -28 -6 -3 -8 2 -5
12 3 10 0 8 -6 -4 -7 -13 -20 -23 -31 -23 -10 0 -18 -5 -18 -11 0 -5 6 -7 13
-3 6 4 3 -3 -8 -15 -18 -21 -20 -22 -33 -4 -10 13 -13 14 -12 3 4 -29 0 -39
-20 -45 -11 -4 -18 -10 -15 -15 3 -5 1 -11 -4 -14 -5 -4 -12 -2 -16 4 -3 5
-12 10 -18 10 -8 0 -7 -4 2 -9 12 -8 13 -12 1 -25 -7 -9 -15 -14 -18 -11 -3 3
-11 -4 -19 -14 -7 -11 -33 -30 -58 -42 -25 -12 -45 -27 -45 -31 0 -5 15 0 33
12 26 18 25 16 -8 -13 -22 -19 -44 -32 -50 -29 -16 10 -36 11 -29 1 3 -5 10
-7 15 -4 24 15 5 -16 -26 -44 -41 -36 -50 -38 -64 -13 -6 9 -11 12 -11 7 0 -6
5 -16 11 -22 6 -6 8 -17 3 -24 -5 -9 -9 -8 -15 7 -6 16 -8 14 -9 -11 -1 -16
-4 -25 -6 -18 -3 7 -12 9 -21 6 -12 -5 -14 -3 -8 8 5 8 4 11 0 6 -16 -14 -14
-36 3 -30 10 4 13 2 8 -5 -4 -7 -14 -12 -22 -12 -8 0 -13 -3 -12 -7 2 -5 -1
-9 -5 -10 -5 -1 -14 -9 -21 -19 -10 -13 -15 -14 -21 -4 -5 8 -4 11 2 7 5 -3
10 0 10 8 0 11 -4 12 -13 4 -6 -5 -10 -20 -7 -32 4 -22 4 -22 -12 -2 -16 19
-16 19 -11 -9 3 -16 2 -25 -2 -21 -4 3 -8 11 -8 16 -1 5 -2 14 -3 19 0 6 -6
10 -12 10 -6 0 -7 -5 -2 -12 4 -7 9 -21 10 -31 2 -15 -1 -17 -18 -12 -16 6
-20 4 -14 -6 5 -8 4 -11 -1 -6 -5 5 -9 14 -9 20 0 7 -4 12 -10 13 -5 0 -18 4
-28 9 -13 5 -15 11 -7 20 9 11 7 12 -9 8 -12 -3 -21 -1 -21 6 0 6 5 11 12 11
6 0 8 3 5 6 -4 4 -13 2 -20 -5 -11 -8 -18 -7 -31 8 -10 11 -15 24 -12 29 3 6
-2 9 -11 7 -30 -4 -35 6 -16 28 9 12 11 16 3 10 -8 -7 -17 -13 -21 -13 -13 0
-78 57 -72 64 3 3 1 6 -5 6 -6 0 -9 8 -5 18 5 15 4 14 -9 -2 -12 -15 -17 -16
-23 -6 -6 9 -4 11 6 6 8 -4 6 -1 -4 6 -10 7 -28 21 -39 31 -12 9 -25 17 -30
17 -4 0 -8 5 -8 11 0 5 5 7 12 3 7 -4 8 -3 4 4 -4 6 -14 8 -23 5 -18 -7 -13 5
16 42 9 11 2 7 -15 -8 l-31 -28 -26 30 c-14 17 -29 31 -34 31 -13 0 -42 38
-35 45 4 4 -2 5 -12 3 -13 -2 -24 5 -31 19 -7 13 -15 20 -18 16 -4 -3 -7 -1
-7 6 0 7 -5 9 -12 5 -7 -4 -8 -3 -4 4 4 7 1 12 -8 12 -9 0 -16 8 -16 19 0 11
-9 23 -20 26 -11 3 -20 14 -21 23 0 13 -2 13 -6 3 -3 -8 5 -23 18 -33 18 -15
19 -17 4 -10 -11 6 -29 20 -40 33 -11 12 -14 19 -7 15 6 -4 12 -2 12 4 0 6 -9
10 -19 8 -24 -4 -61 29 -61 54 0 13 4 17 13 12 6 -4 8 -3 4 1 -4 5 -14 10 -23
11 -11 2 -13 -3 -8 -19 5 -16 -4 -11 -34 19 -23 23 -44 39 -48 35 -4 -3 -4 7
-1 24 5 27 4 28 -9 10 -12 -16 -14 -17 -14 -2 0 9 -5 17 -11 17 -5 0 -7 -6 -4
-12 4 -7 -7 2 -24 20 -17 17 -34 32 -39 32 -12 0 -41 38 -34 45 4 4 -2 5 -13
3 -13 -2 -24 6 -33 25 -9 18 -19 26 -28 23 -8 -3 -14 1 -14 9 0 8 -6 14 -12
12 -7 -1 -12 4 -11 11 2 6 -5 12 -15 12 -29 0 -34 11 -15 34 10 12 11 15 3 9
-8 -7 -17 -13 -21 -13 -13 0 -78 57 -72 64 3 3 1 6 -5 6 -6 0 -9 8 -5 18 5 15
4 14 -9 -2 -12 -15 -17 -16 -23 -6 -6 9 -4 11 6 6 8 -4 6 -1 -4 6 -10 7 -28
21 -39 31 -12 9 -25 17 -30 17 -4 0 -8 7 -8 15 0 8 -8 15 -18 15 -22 0 -65 43
-55 55 5 4 0 5 -10 2 -12 -5 -23 3 -40 28 -12 19 -28 35 -35 35 -18 0 -102 72
-96 82 10 16 13 48 3 43 -5 -4 -7 -10 -4 -15 6 -10 -20 -32 -28 -23 -4 3 -1
13 6 21 10 13 9 14 -1 8 -17 -10 -95 43 -88 60 3 8 -2 11 -14 9 -22 -4 -40 15
-43 43 -1 16 -5 19 -19 11 -14 -7 -18 -6 -18 6 0 8 -6 14 -12 13 -7 -2 -12 3
-11 10 2 6 -5 12 -15 12 -22 0 -65 43 -55 55 5 4 1 6 -8 2 -21 -7 -58 32 -52
53 4 13 3 13 -6 0 -8 -10 -13 -12 -18 -4 -16 22 -39 11 -41 -20z m1008 -2285
c0 -4 -10 -7 -22 -5 -34 4 -35 5 -13 13 21 9 35 5 35 -8z"/>
<path d="M879 5238 c-5 -18 -6 -38 -1 -34 7 8 12 36 6 36 -2 0 -4 -1 -5 -2z"/>
<path d="M4813 5201 c0 -11 5 -18 9 -15 4 3 5 11 1 19 -7 21 -12 19 -10 -4z"/>
<path d="M890 5189 c0 -5 5 -7 10 -4 6 3 10 8 10 11 0 2 -4 4 -10 4 -5 0 -10
-5 -10 -11z"/>
<path d="M950 5189 c0 -5 5 -7 10 -4 6 3 10 8 10 11 0 2 -4 4 -10 4 -5 0 -10
-5 -10 -11z"/>
<path d="M4630 5191 c0 -6 4 -12 8 -15 5 -3 9 1 9 9 0 8 -4 15 -9 15 -4 0 -8
-4 -8 -9z"/>
<path d="M4680 5187 c-8 -7 -24 -24 -35 -37 -13 -16 -6 -13 20 10 22 19 42 36
44 38 2 1 0 2 -5 2 -5 0 -16 -6 -24 -13z"/>
<path d="M935 5150 c10 -11 25 -19 34 -19 13 1 13 2 -1 6 -10 2 -18 8 -18 13
0 4 -8 11 -17 14 -15 6 -15 4 2 -14z"/>
<path d="M987 5149 c7 -7 15 -10 18 -7 3 3 -2 9 -12 12 -14 6 -15 5 -6 -5z"/>
<path d="M4575 5150 c3 -5 8 -10 11 -10 2 0 4 5 4 10 0 6 -5 10 -11 10 -5 0
-7 -4 -4 -10z"/>
<path d="M4583 5113 c1 -17 4 -19 14 -11 15 12 18 22 4 14 -5 -4 -11 0 -14 6
-3 7 -4 3 -4 -9z"/>
<path d="M756 5107 c3 -10 9 -15 12 -12 3 3 0 11 -7 18 -10 9 -11 8 -5 -6z"/>
<path d="M1020 5110 c0 -5 5 -10 11 -10 5 0 7 5 4 10 -3 6 -8 10 -11 10 -2 0
-4 -4 -4 -10z"/>
<path d="M4830 5108 c0 -4 4 -8 9 -8 6 0 12 4 15 8 3 5 -1 9 -9 9 -8 0 -15 -4
-15 -9z"/>
<path d="M4533 5095 c0 -8 4 -12 9 -9 5 3 6 10 3 15 -9 13 -12 11 -12 -6z"/>
<path d="M745 5069 c-3 -4 2 -6 10 -5 21 3 28 13 10 13 -9 0 -18 -4 -20 -8z"/>
<path d="M4831 5062 c-7 -13 -6 -19 2 -19 7 0 13 9 13 19 0 10 -1 18 -3 18 -1
0 -7 -8 -12 -18z"/>
<path d="M4525 5060 c-4 -6 -11 -8 -16 -5 -5 3 -6 -1 -3 -9 8 -21 11 -20 24 4
11 20 6 29 -5 10z"/>
<path d="M1061 5053 c-1 -18 13 -23 29 -11 12 8 12 9 -2 5 -9 -3 -19 -1 -22 6
-3 9 -5 9 -5 0z"/>
<path d="M4479 5040 c-1 -5 -2 -16 -3 -22 -1 -7 -9 -12 -19 -12 -9 1 -14 -3
-11 -8 4 -6 0 -14 -7 -19 -8 -5 -9 -9 -3 -9 16 0 47 37 51 60 2 11 1 20 -2 20
-3 0 -6 -4 -6 -10z"/>
<path d="M1130 5013 c0 -5 7 -16 14 -26 12 -15 14 -15 19 -2 4 8 1 14 -6 12
-7 -1 -11 4 -9 11 1 6 -2 12 -8 12 -5 0 -10 -3 -10 -7z"/>
<path d="M758 4993 c7 -3 16 -2 19 1 4 3 -2 6 -13 5 -11 0 -14 -3 -6 -6z"/>
<path d="M4835 4991 c-3 -5 -2 -12 3 -15 5 -3 9 1 9 9 0 17 -3 19 -12 6z"/>
<path d="M747 4969 c7 -9 10 -19 6 -23 -4 -4 1 -4 10 0 10 3 17 7 15 8 -2 1
-12 8 -23 16 -18 14 -19 13 -8 -1z"/>
<path d="M4813 4965 c0 -8 4 -12 9 -9 5 3 6 10 3 15 -9 13 -12 11 -12 -6z"/>
<path d="M4375 4959 c-4 -6 -5 -12 -2 -15 2 -3 7 2 10 11 7 17 1 20 -8 4z"/>
<path d="M4827 4937 c-3 -8 1 -14 8 -14 7 0 11 6 8 14 -3 7 -6 13 -8 13 -2 0
-5 -6 -8 -13z"/>
<path d="M1237 4923 c-12 -12 -7 -21 16 -26 20 -5 20 -5 5 7 -10 7 -15 16 -11
19 3 4 4 7 1 7 -2 0 -8 -3 -11 -7z"/>
<path d="M755 4900 c-3 -6 1 -7 9 -4 18 7 21 14 7 14 -6 0 -13 -4 -16 -10z"/>
<path d="M4308 4883 c7 -3 16 -2 19 1 4 3 -2 6 -13 5 -11 0 -14 -3 -6 -6z"/>
<path d="M1280 4865 c7 -8 17 -15 22 -15 5 0 3 7 -6 15 -8 8 -18 15 -22 15 -3
0 -1 -7 6 -15z"/>
<path d="M4815 4871 c-3 -5 -2 -12 3 -15 5 -3 9 1 9 9 0 17 -3 19 -12 6z"/>
<path d="M1336 4848 c3 -5 10 -6 15 -3 13 9 11 12 -6 12 -8 0 -12 -4 -9 -9z"/>
<path d="M4266 4847 c3 -10 9 -15 12 -12 3 3 0 11 -7 18 -10 9 -11 8 -5 -6z"/>
<path d="M4235 4840 c3 -5 8 -10 11 -10 2 0 4 5 4 10 0 6 -5 10 -11 10 -5 0
-7 -4 -4 -10z"/>
<path d="M758 4833 c7 -3 16 -2 19 1 4 3 -2 6 -13 5 -11 0 -14 -3 -6 -6z"/>
<path d="M4810 4835 c0 -7 30 -13 34 -7 3 4 -4 9 -15 9 -10 1 -19 0 -19 -2z"/>
<path d="M747 4809 c7 -9 10 -19 6 -23 -4 -4 1 -4 10 0 10 3 17 7 15 8 -2 1
-12 8 -23 16 -18 14 -19 13 -8 -1z"/>
<path d="M4810 4815 c0 -5 5 -17 10 -25 5 -8 10 -10 10 -5 0 6 -5 17 -10 25
-5 8 -10 11 -10 5z"/>
<path d="M1366 4797 c3 -10 9 -15 12 -12 3 3 0 11 -7 18 -10 9 -11 8 -5 -6z"/>
<path d="M1433 4795 c0 -8 4 -12 9 -9 5 3 6 10 3 15 -9 13 -12 11 -12 -6z"/>
<path d="M4189 4793 c-13 -16 -12 -17 4 -4 16 13 21 21 13 21 -2 0 -10 -8 -17
-17z"/>
<path d="M1390 4796 c0 -2 7 -7 16 -10 8 -3 12 -2 9 4 -6 10 -25 14 -25 6z"/>
<path d="M4155 4780 c3 -5 8 -10 11 -10 2 0 4 5 4 10 0 6 -5 10 -11 10 -5 0
-7 -4 -4 -10z"/>
<path d="M4191 4770 c-12 -11 -28 -17 -34 -13 -6 3 -7 1 -3 -5 4 -7 3 -12 -2
-12 -6 0 -13 -7 -16 -16 -3 -8 14 1 39 22 39 32 52 45 43 44 -2 -1 -14 -9 -27
-20z"/>
<path d="M1415 4750 c22 -24 31 -25 39 -4 5 14 4 15 -9 4 -8 -7 -15 -8 -15 -2
0 5 -8 13 -17 16 -15 6 -15 4 2 -14z"/>
<path d="M755 4740 c-3 -6 1 -7 9 -4 18 7 21 14 7 14 -6 0 -13 -4 -16 -10z"/>
<path d="M760 4705 c0 -8 2 -15 4 -15 2 0 6 7 10 15 3 8 1 15 -4 15 -6 0 -10
-7 -10 -15z"/>
<path d="M1512 4686 c7 -8 15 -10 16 -5 2 5 9 6 15 2 7 -3 9 -2 4 2 -4 5 -17
10 -28 12 -16 2 -18 1 -7 -11z"/>
<path d="M4075 4690 c3 -5 8 -10 11 -10 2 0 4 5 4 10 0 6 -5 10 -11 10 -5 0
-7 -4 -4 -10z"/>
<path d="M745 4669 c-3 -4 2 -6 10 -5 21 3 28 13 10 13 -9 0 -18 -4 -20 -8z"/>
<path d="M4024 4668 c-3 -4 5 -5 17 -3 30 6 36 14 9 12 -12 -1 -24 -5 -26 -9z"/>
<path d="M4835 4671 c-3 -5 -2 -12 3 -15 5 -3 9 1 9 9 0 17 -3 19 -12 6z"/>
<path d="M4813 4645 c0 -8 4 -12 9 -9 5 3 6 10 3 15 -9 13 -12 11 -12 -6z"/>
<path d="M746 4632 c-3 -5 1 -9 9 -9 8 0 12 4 9 9 -3 4 -7 8 -9 8 -2 0 -6 -4
-9 -8z"/>
<path d="M3985 4629 c-4 -6 -5 -12 -2 -15 2 -3 7 2 10 11 7 17 1 20 -8 4z"/>
<path d="M4827 4617 c-3 -8 1 -14 8 -14 7 0 11 6 8 14 -3 7 -6 13 -8 13 -2 0
-5 -6 -8 -13z"/>
<path d="M1610 4613 c0 -5 7 -16 14 -26 12 -15 14 -15 19 -2 4 8 1 14 -6 12
-7 -1 -11 4 -9 11 1 6 -2 12 -8 12 -5 0 -10 -3 -10 -7z"/>
<path d="M759 4568 c-6 -21 -5 -37 2 -32 5 3 7 9 4 14 -3 4 1 11 7 13 10 4 10
6 1 6 -7 1 -13 0 -14 -1z"/>
<path d="M3875 4550 c3 -5 11 -10 16 -10 6 0 7 5 4 10 -3 6 -11 10 -16 10 -6
0 -7 -4 -4 -10z"/>
<path d="M4815 4551 c-3 -5 -2 -12 3 -15 5 -3 9 1 9 9 0 17 -3 19 -12 6z"/>
<path d="M1678 4533 c7 -3 16 -2 19 1 4 3 -2 6 -13 5 -11 0 -14 -3 -6 -6z"/>
<path d="M3873 4515 c0 -7 6 -11 14 -8 7 3 13 6 13 8 0 2 -6 5 -13 8 -8 3 -14
-1 -14 -8z"/>
<path d="M1750 4510 c-9 -6 -10 -10 -3 -10 6 0 15 5 18 10 8 12 4 12 -15 0z"/>
<path d="M755 4479 c6 -32 13 -34 13 -4 0 14 -4 25 -9 25 -4 0 -6 -10 -4 -21z"/>
<path d="M3835 4490 c-16 -7 -17 -9 -3 -9 9 -1 20 4 23 9 7 11 7 11 -20 0z"/>
<path d="M1780 4451 c0 -6 4 -13 10 -16 6 -3 7 1 4 9 -7 18 -14 21 -14 7z"/>
<path d="M4813 4445 c0 -8 4 -12 9 -9 5 3 6 10 3 15 -9 13 -12 11 -12 -6z"/>
<path d="M745 4429 c-3 -4 2 -6 10 -5 21 3 28 13 10 13 -9 0 -18 -4 -20 -8z"/>
<path d="M4830 4420 c-6 -11 -8 -20 -6 -20 3 0 10 9 16 20 6 11 8 20 6 20 -3
0 -10 -9 -16 -20z"/>
<path d="M1835 4410 c3 -5 8 -10 11 -10 2 0 4 5 4 10 0 6 -5 10 -11 10 -5 0
-7 -4 -4 -10z"/>
<path d="M1874 4412 c3 -5 2 -12 -4 -14 -5 -1 2 -16 16 -33 23 -28 24 -28 9
-3 -9 15 -14 32 -11 37 4 5 1 13 -5 17 -7 4 -9 3 -5 -4z"/>
<path d="M3723 4391 c0 -11 5 -18 9 -15 4 3 5 11 1 19 -7 21 -12 19 -10 -4z"/>
<path d="M1900 4375 c0 -2 6 -8 13 -14 10 -8 14 -7 14 2 0 8 -6 14 -14 14 -7
0 -13 -1 -13 -2z"/>
<path d="M3656 4368 c3 -5 10 -6 15 -3 13 9 11 12 -6 12 -8 0 -12 -4 -9 -9z"/>
<path d="M3695 4370 c3 -5 8 -10 11 -10 2 0 4 5 4 10 0 6 -5 10 -11 10 -5 0
-7 -4 -4 -10z"/>
<path d="M758 4353 c7 -3 16 -2 19 1 4 3 -2 6 -13 5 -11 0 -14 -3 -6 -6z"/>
<path d="M4835 4351 c-3 -5 -2 -12 3 -15 5 -3 9 1 9 9 0 17 -3 19 -12 6z"/>
<path d="M747 4329 c7 -9 10 -19 6 -23 -4 -4 1 -4 10 0 10 3 17 7 15 8 -2 1
-12 8 -23 16 -18 14 -19 13 -8 -1z"/>
<path d="M1975 4330 c-3 -5 -2 -18 4 -27 7 -14 9 -12 8 10 -2 30 -3 31 -12 17z"/>
<path d="M4813 4325 c0 -8 4 -12 9 -9 5 3 6 10 3 15 -9 13 -12 11 -12 -6z"/>
<path d="M3585 4310 c-2 -3 5 -7 16 -7 10 -1 19 2 19 6 0 9 -29 10 -35 1z"/>
<path d="M3633 4313 c4 -3 1 -13 -6 -22 -11 -14 -10 -14 5 -2 16 12 16 31 1
31 -4 0 -3 -3 0 -7z"/>
<path d="M4827 4297 c-3 -8 1 -14 8 -14 7 0 11 6 8 14 -3 7 -6 13 -8 13 -2 0
-5 -6 -8 -13z"/>
<path d="M1996 4272 c5 -4 12 -11 15 -15 3 -5 9 -2 12 5 3 9 -3 14 -15 15 -11
1 -16 -1 -12 -5z"/>
<path d="M3567 4269 c7 -7 15 -10 18 -7 3 3 -2 9 -12 12 -14 6 -15 5 -6 -5z"/>
<path d="M755 4260 c-3 -6 1 -7 9 -4 18 7 21 14 7 14 -6 0 -13 -4 -16 -10z"/>
<path d="M3555 4239 c-4 -6 -5 -12 -2 -15 2 -3 7 2 10 11 7 17 1 20 -8 4z"/>
<path d="M3516 4228 c3 -5 10 -6 15 -3 13 9 11 12 -6 12 -8 0 -12 -4 -9 -9z"/>
<path d="M4815 4231 c-3 -5 -2 -12 3 -15 5 -3 9 1 9 9 0 17 -3 19 -12 6z"/>
<path d="M754 4198 c1 -14 -4 -22 -12 -20 -8 1 -11 -2 -7 -7 10 -18 33 -1 33
25 0 13 -4 24 -8 24 -4 0 -7 -10 -6 -22z"/>
<path d="M2060 4218 c0 -2 9 -11 20 -21 11 -9 20 -13 20 -7 0 5 -9 14 -20 20
-11 6 -20 9 -20 8z"/>
<path d="M3465 4189 c-4 -6 -5 -12 -2 -15 2 -3 7 2 10 11 7 17 1 20 -8 4z"/>
<path d="M4810 4195 c0 -7 30 -13 34 -7 3 4 -4 9 -15 9 -10 1 -19 0 -19 -2z"/>
<path d="M4810 4175 c0 -5 5 -17 10 -25 5 -8 10 -10 10 -5 0 6 -5 17 -10 25
-5 8 -10 11 -10 5z"/>
<path d="M3396 4152 c-3 -5 1 -9 9 -9 8 0 12 4 9 9 -3 4 -7 8 -9 8 -2 0 -6 -4
-9 -8z"/>
<path d="M3307 4089 c7 -7 15 -10 18 -7 3 3 -2 9 -12 12 -14 6 -15 5 -6 -5z"/>
<path d="M754 4038 c1 -14 -4 -22 -12 -20 -8 1 -11 -2 -7 -7 10 -18 33 -1 33
25 0 13 -4 24 -8 24 -4 0 -7 -10 -6 -22z"/>
<path d="M2260 4051 c0 -6 4 -13 10 -16 6 -3 7 1 4 9 -7 18 -14 21 -14 7z"/>
<path d="M3315 4050 c3 -5 8 -10 11 -10 2 0 4 5 4 10 0 6 -5 10 -11 10 -5 0
-7 -4 -4 -10z"/>
<path d="M3275 4030 c-3 -5 -1 -10 4 -10 6 0 11 5 11 10 0 6 -2 10 -4 10 -3 0
-8 -4 -11 -10z"/>
<path d="M4835 4031 c-3 -5 -2 -12 3 -15 5 -3 9 1 9 9 0 17 -3 19 -12 6z"/>
<path d="M2315 4010 c3 -5 8 -10 11 -10 2 0 4 5 4 10 0 6 -5 10 -11 10 -5 0
-7 -4 -4 -10z"/>
<path d="M2354 4012 c3 -5 1 -12 -4 -14 -6 -2 3 -19 20 -38 29 -33 30 -33 9
-3 -12 17 -19 36 -15 41 3 6 1 14 -5 18 -7 4 -9 3 -5 -4z"/>
<path d="M4813 4005 c0 -8 4 -12 9 -9 5 3 6 10 3 15 -9 13 -12 11 -12 -6z"/>
<path d="M3216 3992 c-2 -4 9 -8 25 -8 33 -2 33 4 1 11 -12 2 -24 1 -26 -3z"/>
<path d="M4827 3977 c-3 -8 1 -14 8 -14 7 0 11 6 8 14 -3 7 -6 13 -8 13 -2 0
-5 -6 -8 -13z"/>
<path d="M2380 3976 c0 -2 8 -10 18 -17 15 -13 16 -12 3 4 -13 16 -21 21 -21
13z"/>
<path d="M3195 3940 c-3 -6 1 -7 9 -4 18 7 21 14 7 14 -6 0 -13 -4 -16 -10z"/>
<path d="M2446 3928 c3 -5 10 -6 15 -3 13 9 11 12 -6 12 -8 0 -12 -4 -9 -9z"/>
<path d="M3133 3919 c-2 -23 3 -25 10 -4 4 8 3 16 -1 19 -4 3 -9 -4 -9 -15z"/>
<path d="M4815 3911 c-3 -5 -2 -12 3 -15 5 -3 9 1 9 9 0 17 -3 19 -12 6z"/>
<path d="M754 3878 c1 -14 -4 -22 -12 -20 -8 1 -11 -2 -7 -7 10 -18 33 -1 33
25 0 13 -4 24 -8 24 -4 0 -7 -10 -6 -22z"/>
<path d="M2472 3886 c7 -8 15 -10 16 -5 2 5 9 6 15 2 7 -3 9 -2 4 2 -4 5 -17
10 -28 12 -16 2 -18 1 -7 -11z"/>
<path d="M3110 3870 c0 -5 5 -10 11 -10 5 0 7 5 4 10 -3 6 -8 10 -11 10 -2 0
-4 -4 -4 -10z"/>
<path d="M3062 3836 c11 -13 -15 -35 -29 -25 -7 7 -14 6 -19 -2 -5 -8 -3 -9 6
-4 10 6 12 4 7 -9 -5 -13 -3 -15 12 -7 31 17 44 38 29 47 -7 4 -10 4 -6 0z"/>
<path d="M2570 3813 c0 -5 7 -16 14 -26 12 -15 14 -15 19 -2 4 8 1 14 -6 12
-7 -1 -11 4 -9 11 1 6 -2 12 -8 12 -5 0 -10 -3 -10 -7z"/>
<path d="M4813 3805 c0 -8 4 -12 9 -9 5 3 6 10 3 15 -9 13 -12 11 -12 -6z"/>
<path d="M4830 3780 c-6 -11 -8 -20 -6 -20 3 0 10 9 16 20 6 11 8 20 6 20 -3
0 -10 -9 -16 -20z"/>
<path d="M2955 3771 c-3 -5 -2 -12 3 -15 5 -3 9 1 9 9 0 17 -3 19 -12 6z"/>
<path d="M754 3718 c1 -14 -4 -22 -12 -20 -8 1 -11 -2 -7 -7 10 -18 33 -1 33
25 0 13 -4 24 -8 24 -4 0 -7 -10 -6 -22z"/>
<path d="M2677 3716 c-3 -8 2 -20 11 -27 14 -11 15 -11 5 0 -6 7 -9 20 -6 27
3 8 3 14 0 14 -3 0 -7 -6 -10 -14z"/>
<path d="M2706 3712 c-3 -5 1 -9 9 -9 8 0 12 4 9 9 -3 4 -7 8 -9 8 -2 0 -6 -4
-9 -8z"/>
<path d="M4835 3711 c-3 -5 -2 -12 3 -15 5 -3 9 1 9 9 0 17 -3 19 -12 6z"/>
<path d="M2746 3692 c-3 -5 1 -9 9 -9 8 0 12 4 9 9 -3 4 -7 8 -9 8 -2 0 -6 -4
-9 -8z"/>
<path d="M4813 3685 c0 -8 4 -12 9 -9 5 3 6 10 3 15 -9 13 -12 11 -12 -6z"/>
<path d="M4827 3657 c-3 -8 1 -14 8 -14 7 0 11 6 8 14 -3 7 -6 13 -8 13 -2 0
-5 -6 -8 -13z"/>
<path d="M2755 3640 c3 -5 8 -10 11 -10 2 0 4 5 4 10 0 6 -5 10 -11 10 -5 0
-7 -4 -4 -10z"/>
<path d="M2796 3631 c-3 -5 1 -11 9 -14 9 -4 12 -1 8 9 -6 16 -10 17 -17 5z"/>
<path d="M4815 3591 c-3 -5 -2 -12 3 -15 5 -3 9 1 9 9 0 17 -3 19 -12 6z"/>
<path d="M745 3549 c-3 -4 2 -6 10 -5 21 3 28 13 10 13 -9 0 -18 -4 -20 -8z"/>
<path d="M4810 3555 c0 -7 30 -13 34 -7 3 4 -4 9 -15 9 -10 1 -19 0 -19 -2z"/>
<path d="M4810 3535 c0 -5 5 -17 10 -25 5 -8 10 -10 10 -5 0 6 -5 17 -10 25
-5 8 -10 11 -10 5z"/>
<path d="M746 3512 c-3 -5 1 -9 9 -9 8 0 12 4 9 9 -3 4 -7 8 -9 8 -2 0 -6 -4
-9 -8z"/>
<path d="M759 3448 c-6 -21 -5 -37 2 -32 5 3 7 9 4 14 -3 4 1 11 7 13 10 4 10
6 1 6 -7 1 -13 0 -14 -1z"/>
<path d="M4835 3391 c-3 -5 -2 -12 3 -15 5 -3 9 1 9 9 0 17 -3 19 -12 6z"/>
<path d="M755 3359 c6 -32 13 -34 13 -4 0 14 -4 25 -9 25 -4 0 -6 -10 -4 -21z"/>
<path d="M4813 3365 c0 -8 4 -12 9 -9 5 3 6 10 3 15 -9 13 -12 11 -12 -6z"/>
<path d="M4827 3337 c-3 -8 1 -14 8 -14 7 0 11 6 8 14 -3 7 -6 13 -8 13 -2 0
-5 -6 -8 -13z"/>
<path d="M745 3309 c-3 -4 2 -6 10 -5 21 3 28 13 10 13 -9 0 -18 -4 -20 -8z"/>
<path d="M4815 3271 c-3 -5 -2 -12 3 -15 5 -3 9 1 9 9 0 17 -3 19 -12 6z"/>
<path d="M758 3233 c7 -3 16 -2 19 1 4 3 -2 6 -13 5 -11 0 -14 -3 -6 -6z"/>
<path d="M747 3209 c7 -9 10 -19 6 -23 -4 -4 1 -4 10 0 10 3 17 7 15 8 -2 1
-12 8 -23 16 -18 14 -19 13 -8 -1z"/>
<path d="M4813 3165 c0 -8 4 -12 9 -9 5 3 6 10 3 15 -9 13 -12 11 -12 -6z"/>
<path d="M4830 3140 c-6 -11 -8 -20 -6 -20 3 0 10 9 16 20 6 11 8 20 6 20 -3
0 -10 -9 -16 -20z"/>
<path d="M755 3140 c-3 -6 1 -7 9 -4 18 7 21 14 7 14 -6 0 -13 -4 -16 -10z"/>
<path d="M760 3105 c0 -8 2 -15 4 -15 2 0 6 7 10 15 3 8 1 15 -4 15 -6 0 -10
-7 -10 -15z"/>
<path d="M745 3069 c-3 -4 2 -6 10 -5 21 3 28 13 10 13 -9 0 -18 -4 -20 -8z"/>
<path d="M4835 3071 c-3 -5 -2 -12 3 -15 5 -3 9 1 9 9 0 17 -3 19 -12 6z"/>
<path d="M4813 3045 c0 -8 4 -12 9 -9 5 3 6 10 3 15 -9 13 -12 11 -12 -6z"/>
<path d="M746 3032 c-3 -5 1 -9 9 -9 8 0 12 4 9 9 -3 4 -7 8 -9 8 -2 0 -6 -4
-9 -8z"/>
<path d="M4827 3017 c-3 -8 1 -14 8 -14 7 0 11 6 8 14 -3 7 -6 13 -8 13 -2 0
-5 -6 -8 -13z"/>
<path d="M3772 2975 c4 -4 3 -14 -3 -22 -7 -8 -8 -13 -1 -13 15 0 23 28 9 36
-7 4 -9 4 -5 -1z"/>
<path d="M759 2968 c-6 -21 -5 -37 2 -32 5 3 7 9 4 14 -3 4 1 11 7 13 10 4 10
6 1 6 -7 1 -13 0 -14 -1z"/>
<path d="M1806 2962 c-3 -6 1 -15 10 -22 8 -7 13 -18 10 -25 -2 -6 2 -12 9
-12 10 0 11 5 5 17 -5 10 -7 20 -4 22 2 3 -2 11 -10 17 -8 7 -17 8 -20 3z"/>
<path d="M4815 2951 c-3 -5 -2 -12 3 -15 5 -3 9 1 9 9 0 17 -3 19 -12 6z"/>
<path d="M3735 2940 c-7 -11 22 -26 32 -16 4 3 -1 6 -11 6 -9 0 -14 5 -11 10
3 6 4 10 1 10 -3 0 -8 -5 -11 -10z"/>
<path d="M3713 2917 c0 -8 6 -14 14 -14 9 0 10 4 2 14 -6 7 -12 13 -14 13 -1
0 -2 -6 -2 -13z"/>
<path d="M3786 2911 c5 -17 3 -21 -6 -16 -9 5 -11 4 -6 -3 10 -16 14 -15 27 9
6 13 7 19 1 15 -6 -3 -13 0 -16 6 -3 7 -3 2 0 -11z"/>
<path d="M1865 2909 c-4 -6 -5 -12 -2 -15 2 -3 7 2 10 11 7 17 1 20 -8 4z"/>
<path d="M4810 2915 c0 -7 30 -13 34 -7 3 4 -4 9 -15 9 -10 1 -19 0 -19 -2z"/>
<path d="M755 2879 c6 -32 13 -34 13 -4 0 14 -4 25 -9 25 -4 0 -6 -10 -4 -21z"/>
<path d="M4810 2895 c0 -5 5 -17 10 -25 5 -8 10 -10 10 -5 0 6 -5 17 -10 25
-5 8 -10 11 -10 5z"/>
<path d="M1767 2873 c3 -7 8 -13 12 -13 4 0 8 6 8 13 0 8 -6 14 -13 14 -7 0
-10 -6 -7 -14z"/>
<path d="M1915 2869 c-4 -6 -5 -12 -2 -15 2 -3 7 2 10 11 7 17 1 20 -8 4z"/>
<path d="M3609 2843 c-12 -16 -12 -17 2 -6 9 7 20 9 24 5 5 -4 5 -1 1 6 -9 16
-11 15 -27 -5z"/>
<path d="M3776 2843 c-6 -14 -5 -15 5 -6 7 7 10 15 7 18 -3 3 -9 -2 -12 -12z"/>
<path d="M1941 2847 c2 -1 13 -9 24 -17 19 -14 19 -14 6 3 -7 9 -18 17 -24 17
-6 0 -8 -1 -6 -3z"/>
<path d="M745 2829 c-3 -4 2 -6 10 -5 21 3 28 13 10 13 -9 0 -18 -4 -20 -8z"/>
<path d="M3598 2813 c7 -3 16 -2 19 1 4 3 -2 6 -13 5 -11 0 -14 -3 -6 -6z"/>
<path d="M3811 2794 c0 -11 3 -14 6 -6 3 7 2 16 -1 19 -3 4 -6 -2 -5 -13z"/>
<path d="M3580 2796 c0 -2 7 -7 16 -10 8 -3 12 -2 9 4 -6 10 -25 14 -25 6z"/>
<path d="M2046 2775 c4 -8 11 -15 16 -15 6 0 5 6 -2 15 -7 8 -14 15 -16 15 -2
0 -1 -7 2 -15z"/>
<path d="M758 2753 c7 -3 16 -2 19 1 4 3 -2 6 -13 5 -11 0 -14 -3 -6 -6z"/>
<path d="M4835 2751 c-3 -5 -2 -12 3 -15 5 -3 9 1 9 9 0 17 -3 19 -12 6z"/>
<path d="M747 2729 c7 -9 10 -19 6 -23 -4 -4 1 -4 10 0 10 3 17 7 15 8 -2 1
-12 8 -23 16 -18 14 -19 13 -8 -1z"/>
<path d="M3460 2725 c-6 -8 -10 -19 -8 -24 1 -6 8 1 15 14 13 28 11 31 -7 10z"/>
<path d="M3495 2729 c-4 -6 -5 -12 -2 -15 2 -3 7 2 10 11 7 17 1 20 -8 4z"/>
<path d="M3797 2723 c3 -7 6 -13 8 -13 2 0 5 6 8 13 3 8 -1 14 -8 14 -7 0 -11
-6 -8 -14z"/>
<path d="M4813 2725 c0 -8 4 -12 9 -9 5 3 6 10 3 15 -9 13 -12 11 -12 -6z"/>
<path d="M3815 2701 c-3 -5 -2 -12 3 -15 5 -3 9 1 9 9 0 17 -3 19 -12 6z"/>
<path d="M4827 2697 c-3 -8 1 -14 8 -14 7 0 11 6 8 14 -3 7 -6 13 -8 13 -2 0
-5 -6 -8 -13z"/>
<path d="M2155 2679 c-4 -5 -11 -6 -17 -3 -7 5 -8 2 -3 -5 5 -9 11 -9 17 -3 6
6 17 8 24 5 8 -3 14 -3 14 0 0 10 -30 16 -35 6z"/>
<path d="M3403 2683 c-17 -6 -17 -20 0 -20 8 0 14 6 14 14 0 7 -1 13 -1 12 -1
0 -7 -3 -13 -6z"/>
<path d="M3793 2675 c0 -8 4 -12 9 -9 5 3 6 10 3 15 -9 13 -12 11 -12 -6z"/>
<path d="M755 2660 c-3 -6 1 -7 9 -4 18 7 21 14 7 14 -6 0 -13 -4 -16 -10z"/>
<path d="M2173 2639 c-2 -23 3 -25 10 -4 4 8 3 16 -1 19 -4 3 -9 -4 -9 -15z"/>
<path d="M760 2625 c0 -8 2 -15 4 -15 2 0 6 7 10 15 3 8 1 15 -4 15 -6 0 -10
-7 -10 -15z"/>
<path d="M2196 2623 c-6 -14 -5 -15 5 -6 7 7 10 15 7 18 -3 3 -9 -2 -12 -12z"/>
<path d="M2225 2629 c-4 -6 -5 -12 -2 -15 2 -3 7 2 10 11 7 17 1 20 -8 4z"/>
<path d="M4815 2631 c-3 -5 -2 -12 3 -15 5 -3 9 1 9 9 0 17 -3 19 -12 6z"/>
<path d="M1765 2610 c-3 -5 -1 -10 4 -10 6 0 11 5 11 10 0 6 -2 10 -4 10 -3 0
-8 -4 -11 -10z"/>
<path d="M1795 2610 c3 -5 8 -10 11 -10 2 0 4 5 4 10 0 6 -5 10 -11 10 -5 0
-7 -4 -4 -10z"/>
<path d="M3331 2617 c2 -1 13 -9 24 -17 19 -14 19 -14 6 3 -7 9 -18 17 -24 17
-6 0 -8 -1 -6 -3z"/>
<path d="M3794 2598 c0 -10 1 -18 3 -18 1 0 7 8 12 18 7 13 6 19 -2 19 -7 0
-13 -9 -13 -19z"/>
<path d="M3300 2588 c-10 -21 -10 -21 3 -6 8 10 18 14 22 10 5 -4 5 -1 1 6
-10 17 -14 15 -26 -10z"/>
<path d="M745 2589 c-3 -4 2 -6 10 -5 21 3 28 13 10 13 -9 0 -18 -4 -20 -8z"/>
<path d="M1766 2577 c3 -10 9 -15 12 -12 3 3 0 11 -7 18 -10 9 -11 8 -5 -6z"/>
<path d="M2326 2555 c4 -8 11 -15 16 -15 6 0 5 6 -2 15 -7 8 -14 15 -16 15 -2
0 -1 -7 2 -15z"/>
<path d="M3271 2563 c-1 -17 16 -25 25 -12 4 7 3 9 -4 5 -5 -3 -13 0 -15 6 -4
9 -6 10 -6 1z"/>
<path d="M746 2552 c-3 -5 1 -9 9 -9 8 0 12 4 9 9 -3 4 -7 8 -9 8 -2 0 -6 -4
-9 -8z"/>
<path d="M1760 2546 c0 -2 7 -7 16 -10 8 -3 12 -2 9 4 -6 10 -25 14 -25 6z"/>
<path d="M3813 2520 c-1 -11 2 -20 5 -20 4 0 8 9 9 20 1 11 -2 20 -5 20 -4 0
-8 -9 -9 -20z"/>
<path d="M4813 2525 c0 -8 4 -12 9 -9 5 3 6 10 3 15 -9 13 -12 11 -12 -6z"/>
<path d="M1766 2517 c3 -10 9 -15 12 -12 3 3 0 11 -7 18 -10 9 -11 8 -5 -6z"/>
<path d="M2350 2521 c0 -6 4 -13 10 -16 6 -3 7 1 4 9 -7 18 -14 21 -14 7z"/>
<path d="M3171 2500 c-19 -16 -32 -33 -28 -36 4 -4 7 -2 7 4 0 6 8 13 18 16 9
3 23 15 30 26 16 26 14 25 -27 -10z"/>
<path d="M1796 2503 c-6 -14 -5 -15 5 -6 7 7 10 15 7 18 -3 3 -9 -2 -12 -12z"/>
<path d="M3215 2509 c-4 -6 -4 -13 -1 -16 3 -4 6 -1 6 6 0 8 6 11 16 7 8 -3
12 -2 9 4 -8 13 -22 13 -30 -1z"/>
<path d="M4830 2500 c-6 -11 -8 -20 -6 -20 3 0 10 9 16 20 6 11 8 20 6 20 -3
0 -10 -9 -16 -20z"/>
<path d="M759 2488 c-6 -21 -5 -37 2 -32 5 3 7 9 4 14 -3 4 1 11 7 13 10 4 10
6 1 6 -7 1 -13 0 -14 -1z"/>
<path d="M2429 2454 c6 -3 8 -11 5 -19 -3 -7 -1 -15 4 -19 5 -3 8 5 7 16 -1
12 -7 23 -14 24 -6 1 -7 0 -2 -2z"/>
<path d="M3796 2442 c-2 -4 -1 -14 4 -22 7 -11 9 -9 7 8 -1 24 -3 26 -11 14z"/>
<path d="M4835 2431 c-3 -5 -2 -12 3 -15 5 -3 9 1 9 9 0 17 -3 19 -12 6z"/>
<path d="M2496 2421 c-5 -7 -5 -15 -2 -18 3 -4 6 0 6 8 1 8 7 3 15 -11 8 -14
14 -20 15 -14 0 5 -6 18 -13 29 -10 13 -16 15 -21 6z"/>
<path d="M3076 2421 c-3 -5 1 -11 9 -14 9 -4 12 -1 8 9 -6 16 -10 17 -17 5z"/>
<path d="M755 2399 c6 -32 13 -34 13 -4 0 14 -4 25 -9 25 -4 0 -6 -10 -4 -21z"/>
<path d="M4813 2405 c0 -8 4 -12 9 -9 5 3 6 10 3 15 -9 13 -12 11 -12 -6z"/>
<path d="M2543 2375 c0 -8 4 -12 9 -9 5 3 6 10 3 15 -9 13 -12 11 -12 -6z"/>
<path d="M4827 2377 c-3 -8 1 -14 8 -14 7 0 11 6 8 14 -3 7 -6 13 -8 13 -2 0
-5 -6 -8 -13z"/>
<path d="M745 2349 c-3 -4 2 -6 10 -5 21 3 28 13 10 13 -9 0 -18 -4 -20 -8z"/>
<path d="M1763 2344 c0 -7 6 -10 14 -7 7 3 13 8 13 12 0 4 -6 8 -13 8 -8 0
-14 -6 -14 -13z"/>
<path d="M3811 2314 c0 -11 3 -14 6 -6 3 7 2 16 -1 19 -3 4 -6 -2 -5 -13z"/>
<path d="M1760 2309 c0 -4 6 -9 13 -12 8 -3 14 0 14 7 0 7 -6 13 -14 13 -7 0
-13 -4 -13 -8z"/>
<path d="M4815 2311 c-3 -5 -2 -12 3 -15 5 -3 9 1 9 9 0 17 -3 19 -12 6z"/>
<path d="M754 2278 c1 -14 -4 -22 -12 -20 -8 1 -11 -2 -7 -7 10 -18 33 -1 33
25 0 13 -4 24 -8 24 -4 0 -7 -10 -6 -22z"/>
<path d="M2903 2276 c0 -15 22 -15 34 0 4 5 4 6 -1 2 -5 -4 -14 -3 -21 2 -8 7
-12 5 -12 -4z"/>
<path d="M1775 2269 c-3 -4 2 -6 10 -5 21 3 28 13 10 13 -9 0 -18 -4 -20 -8z"/>
<path d="M2690 2270 c0 -5 5 -10 11 -10 5 0 7 5 4 10 -3 6 -8 10 -11 10 -2 0
-4 -4 -4 -10z"/>
<path d="M4810 2275 c0 -7 30 -13 34 -7 3 4 -4 9 -15 9 -10 1 -19 0 -19 -2z"/>
<path d="M2871 2237 c-13 -21 -12 -21 5 -5 10 10 16 20 13 22 -3 3 -11 -5 -18
-17z"/>
<path d="M3797 2243 c3 -7 6 -13 8 -13 2 0 5 6 8 13 3 8 -1 14 -8 14 -7 0 -11
-6 -8 -14z"/>
<path d="M4810 2255 c0 -5 5 -17 10 -25 5 -8 10 -10 10 -5 0 6 -5 17 -10 25
-5 8 -10 11 -10 5z"/>
<path d="M2696 2237 c3 -10 9 -15 12 -12 3 3 0 11 -7 18 -10 9 -11 8 -5 -6z"/>
<path d="M3815 2221 c-3 -5 -2 -12 3 -15 5 -3 9 1 9 9 0 17 -3 19 -12 6z"/>
<path d="M3793 2195 c0 -8 4 -12 9 -9 5 3 6 10 3 15 -9 13 -12 11 -12 -6z"/>
<path d="M1760 2146 c0 -2 7 -7 16 -10 8 -3 12 -2 9 4 -6 10 -25 14 -25 6z"/>
<path d="M754 2118 c1 -14 -4 -22 -12 -20 -8 1 -11 -2 -7 -7 10 -18 33 -1 33
25 0 13 -4 24 -8 24 -4 0 -7 -10 -6 -22z"/>
<path d="M3794 2118 c0 -10 1 -18 3 -18 1 0 7 8 12 18 7 13 6 19 -2 19 -7 0
-13 -9 -13 -19z"/>
<path d="M1775 2109 c-3 -4 2 -6 10 -5 21 3 28 13 10 13 -9 0 -18 -4 -20 -8z"/>
<path d="M4835 2111 c-3 -5 -2 -12 3 -15 5 -3 9 1 9 9 0 17 -3 19 -12 6z"/>
<path d="M4813 2085 c0 -8 4 -12 9 -9 5 3 6 10 3 15 -9 13 -12 11 -12 -6z"/>
<path d="M4827 2057 c-3 -8 1 -14 8 -14 7 0 11 6 8 14 -3 7 -6 13 -8 13 -2 0
-5 -6 -8 -13z"/>
<path d="M3813 2040 c-1 -11 2 -20 5 -20 4 0 8 9 9 20 1 11 -2 20 -5 20 -4 0
-8 -9 -9 -20z"/>
<path d="M4815 1991 c-3 -5 -2 -12 3 -15 5 -3 9 1 9 9 0 17 -3 19 -12 6z"/>
<path d="M1760 1986 c0 -2 7 -7 16 -10 8 -3 12 -2 9 4 -6 10 -25 14 -25 6z"/>
<path d="M754 1958 c1 -14 -4 -22 -12 -20 -8 1 -11 -2 -7 -7 10 -18 33 -1 33
25 0 13 -4 24 -8 24 -4 0 -7 -10 -6 -22z"/>
<path d="M3796 1962 c-2 -4 -1 -14 4 -22 7 -11 9 -9 7 8 -1 24 -3 26 -11 14z"/>
<path d="M1775 1949 c-3 -4 2 -6 10 -5 21 3 28 13 10 13 -9 0 -18 -4 -20 -8z"/>
<path d="M4813 1885 c0 -8 4 -12 9 -9 5 3 6 10 3 15 -9 13 -12 11 -12 -6z"/>
<path d="M4830 1860 c-6 -11 -8 -20 -6 -20 3 0 10 9 16 20 6 11 8 20 6 20 -3
0 -10 -9 -16 -20z"/>
<path d="M3811 1834 c0 -11 3 -14 6 -6 3 7 2 16 -1 19 -3 4 -6 -2 -5 -13z"/>
<path d="M1760 1826 c0 -2 7 -7 16 -10 8 -3 12 -2 9 4 -6 10 -25 14 -25 6z"/>
<path d="M754 1798 c1 -14 -4 -22 -12 -20 -8 1 -11 -2 -7 -7 10 -18 33 -1 33
25 0 13 -4 24 -8 24 -4 0 -7 -10 -6 -22z"/>
<path d="M1775 1789 c-3 -4 2 -6 10 -5 21 3 28 13 10 13 -9 0 -18 -4 -20 -8z"/>
<path d="M4835 1791 c-3 -5 -2 -12 3 -15 5 -3 9 1 9 9 0 17 -3 19 -12 6z"/>
<path d="M3797 1763 c3 -7 6 -13 8 -13 2 0 5 6 8 13 3 8 -1 14 -8 14 -7 0 -11
-6 -8 -14z"/>
<path d="M4813 1765 c0 -8 4 -12 9 -9 5 3 6 10 3 15 -9 13 -12 11 -12 -6z"/>
<path d="M3815 1741 c-3 -5 -2 -12 3 -15 5 -3 9 1 9 9 0 17 -3 19 -12 6z"/>
<path d="M4827 1737 c-3 -8 1 -14 8 -14 7 0 11 6 8 14 -3 7 -6 13 -8 13 -2 0
-5 -6 -8 -13z"/>
<path d="M3793 1715 c0 -8 4 -12 9 -9 5 3 6 10 3 15 -9 13 -12 11 -12 -6z"/>
<path d="M4815 1671 c-3 -5 -2 -12 3 -15 5 -3 9 1 9 9 0 17 -3 19 -12 6z"/>
<path d="M3794 1638 c0 -10 1 -18 3 -18 1 0 7 8 12 18 7 13 6 19 -2 19 -7 0
-13 -9 -13 -19z"/>
<path d="M758 1633 c7 -3 16 -2 19 1 4 3 -2 6 -13 5 -11 0 -14 -3 -6 -6z"/>
<path d="M4810 1635 c0 -7 30 -13 34 -7 3 4 -4 9 -15 9 -10 1 -19 0 -19 -2z"/>
<path d="M747 1609 c7 -9 10 -19 6 -23 -4 -4 1 -4 10 0 10 3 17 7 15 8 -2 1
-12 8 -23 16 -18 14 -19 13 -8 -1z"/>
<path d="M4810 1615 c0 -5 5 -17 10 -25 5 -8 10 -10 10 -5 0 6 -5 17 -10 25
-5 8 -10 11 -10 5z"/>
<path d="M3813 1560 c-1 -11 2 -20 5 -20 4 0 8 9 9 20 1 11 -2 20 -5 20 -4 0
-8 -9 -9 -20z"/>
<path d="M755 1540 c-3 -6 1 -7 9 -4 18 7 21 14 7 14 -6 0 -13 -4 -16 -10z"/>
<path d="M760 1505 c0 -8 2 -15 4 -15 2 0 6 7 10 15 3 8 1 15 -4 15 -6 0 -10
-7 -10 -15z"/>
<path d="M3796 1482 c-2 -4 -1 -14 4 -22 7 -11 9 -9 7 8 -1 24 -3 26 -11 14z"/>
<path d="M745 1469 c-3 -4 2 -6 10 -5 21 3 28 13 10 13 -9 0 -18 -4 -20 -8z"/>
<path d="M4835 1471 c-3 -5 -2 -12 3 -15 5 -3 9 1 9 9 0 17 -3 19 -12 6z"/>
<path d="M4813 1445 c0 -8 4 -12 9 -9 5 3 6 10 3 15 -9 13 -12 11 -12 -6z"/>
<path d="M746 1432 c-3 -5 1 -9 9 -9 8 0 12 4 9 9 -3 4 -7 8 -9 8 -2 0 -6 -4
-9 -8z"/>
<path d="M4827 1417 c-3 -8 1 -14 8 -14 7 0 11 6 8 14 -3 7 -6 13 -8 13 -2 0
-5 -6 -8 -13z"/>
<path d="M759 1368 c-6 -21 -5 -37 2 -32 5 3 7 9 4 14 -3 4 1 11 7 13 10 4 10
6 1 6 -7 1 -13 0 -14 -1z"/>
<path d="M3811 1354 c0 -11 3 -14 6 -6 3 7 2 16 -1 19 -3 4 -6 -2 -5 -13z"/>
<path d="M1766 1348 c3 -4 9 -8 15 -8 5 0 9 4 9 8 0 5 -7 9 -15 9 -8 0 -12 -4
-9 -9z"/>
<path d="M4815 1351 c-3 -5 -2 -12 3 -15 5 -3 9 1 9 9 0 17 -3 19 -12 6z"/>
<path d="M755 1279 c6 -32 13 -34 13 -4 0 14 -4 25 -9 25 -4 0 -6 -10 -4 -21z"/>
<path d="M3797 1283 c3 -7 6 -13 8 -13 2 0 5 6 8 13 3 8 -1 14 -8 14 -7 0 -11
-6 -8 -14z"/>
<path d="M3815 1261 c-3 -5 -2 -12 3 -15 5 -3 9 1 9 9 0 17 -3 19 -12 6z"/>
<path d="M4813 1245 c0 -8 4 -12 9 -9 5 3 6 10 3 15 -9 13 -12 11 -12 -6z"/>
<path d="M3793 1235 c0 -8 4 -12 9 -9 5 3 6 10 3 15 -9 13 -12 11 -12 -6z"/>
<path d="M745 1229 c-3 -4 2 -6 10 -5 21 3 28 13 10 13 -9 0 -18 -4 -20 -8z"/>
<path d="M1763 1224 c0 -7 6 -10 14 -7 7 3 13 8 13 12 0 4 -6 8 -13 8 -8 0
-14 -6 -14 -13z"/>
<path d="M4830 1220 c-6 -11 -8 -20 -6 -20 3 0 10 9 16 20 6 11 8 20 6 20 -3
0 -10 -9 -16 -20z"/>
<path d="M758 1153 c7 -3 16 -2 19 1 4 3 -2 6 -13 5 -11 0 -14 -3 -6 -6z"/>
<path d="M4835 1151 c-3 -5 -2 -12 3 -15 5 -3 9 1 9 9 0 17 -3 19 -12 6z"/>
<path d="M747 1129 c7 -9 10 -19 6 -23 -4 -4 1 -4 10 0 10 3 17 7 15 8 -2 1
-12 8 -23 16 -18 14 -19 13 -8 -1z"/>
<path d="M3795 1130 c3 -5 8 -10 11 -10 2 0 4 5 4 10 0 6 -5 10 -11 10 -5 0
-7 -4 -4 -10z"/>
<path d="M4813 1125 c0 -8 4 -12 9 -9 5 3 6 10 3 15 -9 13 -12 11 -12 -6z"/>
<path d="M3793 1095 c0 -8 4 -12 9 -9 5 3 6 10 3 15 -9 13 -12 11 -12 -6z"/>
<path d="M4827 1097 c-3 -8 1 -14 8 -14 7 0 11 6 8 14 -3 7 -6 13 -8 13 -2 0
-5 -6 -8 -13z"/>
<path d="M755 1060 c-3 -6 1 -7 9 -4 18 7 21 14 7 14 -6 0 -13 -4 -16 -10z"/>
<path d="M4815 1031 c-3 -5 -2 -12 3 -15 5 -3 9 1 9 9 0 17 -3 19 -12 6z"/>
<path d="M3815 1010 c6 -30 16 -40 12 -12 -2 12 -6 24 -10 28 -3 4 -4 -4 -2
-16z"/>
<path d="M758 993 c7 -3 16 -2 19 1 4 3 -2 6 -13 5 -11 0 -14 -3 -6 -6z"/>
<path d="M3794 982 c0 -10 6 -19 13 -19 8 0 9 6 2 19 -5 10 -11 18 -12 18 -2
0 -3 -8 -3 -18z"/>
<path d="M4810 995 c0 -7 30 -13 34 -7 3 4 -4 9 -15 9 -10 1 -19 0 -19 -2z"/>
<path d="M747 969 c7 -9 10 -19 6 -23 -4 -4 1 -4 10 0 10 3 17 7 15 8 -2 1
-12 8 -23 16 -18 14 -19 13 -8 -1z"/>
<path d="M4810 975 c0 -5 5 -17 10 -25 5 -8 10 -10 10 -5 0 6 -5 17 -10 25 -5
8 -10 11 -10 5z"/>
<path d="M755 900 c-3 -6 1 -7 9 -4 18 7 21 14 7 14 -6 0 -13 -4 -16 -10z"/>
<path d="M760 865 c0 -8 2 -15 4 -15 2 0 6 7 10 15 3 8 1 15 -4 15 -6 0 -10
-7 -10 -15z"/>
<path d="M745 829 c-3 -4 2 -6 10 -5 21 3 28 13 10 13 -9 0 -18 -4 -20 -8z"/>
<path d="M1670 830 c0 -5 5 -10 11 -10 5 0 7 5 4 10 -3 6 -8 10 -11 10 -2 0
-4 -4 -4 -10z"/>
<path d="M4835 831 c-3 -5 -2 -12 3 -15 5 -3 9 1 9 9 0 17 -3 19 -12 6z"/>
<path d="M1615 810 c-3 -5 -1 -10 4 -10 6 0 11 5 11 10 0 6 -2 10 -4 10 -3 0
-8 -4 -11 -10z"/>
<path d="M3915 810 c-3 -6 1 -7 9 -4 18 7 21 14 7 14 -6 0 -13 -4 -16 -10z"/>
<path d="M4813 805 c0 -8 4 -12 9 -9 5 3 6 10 3 15 -9 13 -12 11 -12 -6z"/>
<path d="M3993 795 c0 -8 4 -15 9 -15 4 0 8 4 8 9 0 6 -4 12 -8 15 -5 3 -9 -1
-9 -9z"/>
<path d="M746 792 c-3 -5 1 -9 9 -9 8 0 12 4 9 9 -3 4 -7 8 -9 8 -2 0 -6 -4
-9 -8z"/>
<path d="M1525 779 c-4 -6 -5 -12 -2 -15 2 -3 7 2 10 11 7 17 1 20 -8 4z"/>
<path d="M1590 779 c0 -5 5 -7 10 -4 6 3 10 8 10 11 0 2 -4 4 -10 4 -5 0 -10
-5 -10 -11z"/>
<path d="M4827 777 c-3 -8 1 -14 8 -14 7 0 11 6 8 14 -3 7 -6 13 -8 13 -2 0
-5 -6 -8 -13z"/>
<path d="M3995 759 c-4 -6 -5 -12 -2 -15 2 -3 7 2 10 11 7 17 1 20 -8 4z"/>
<path d="M4077 763 c-4 -3 -7 -11 -7 -17 0 -6 5 -5 12 2 6 6 9 14 7 17 -3 3
-9 2 -12 -2z"/>
<path d="M4103 755 c0 -8 4 -12 9 -9 5 3 6 10 3 15 -9 13 -12 11 -12 -6z"/>
<path d="M1559 743 c-13 -16 -12 -17 4 -4 16 13 21 21 13 21 -2 0 -10 -8 -17
-17z"/>
<path d="M1415 730 c3 -5 8 -10 11 -10 2 0 4 5 4 10 0 6 -5 10 -11 10 -5 0 -7
-4 -4 -10z"/>
<path d="M1476 732 c-3 -5 1 -9 9 -9 8 0 12 4 9 9 -3 4 -7 8 -9 8 -2 0 -6 -4
-9 -8z"/>
<path d="M759 728 c-6 -21 -5 -37 2 -32 5 3 7 9 4 14 -3 4 1 11 7 13 10 4 10
6 1 6 -7 1 -13 0 -14 -1z"/>
<path d="M1384 718 c3 -15 26 -23 26 -8 0 6 -4 9 -9 6 -5 -4 -12 -1 -14 4 -3
6 -4 5 -3 -2z"/>
<path d="M4815 711 c-3 -5 -2 -12 3 -15 5 -3 9 1 9 9 0 17 -3 19 -12 6z"/>
<path d="M4270 690 c0 -5 5 -10 10 -10 6 0 10 5 10 10 0 6 -4 10 -10 10 -5 0
-10 -4 -10 -10z"/>
<path d="M753 665 c0 -8 4 -12 9 -9 5 3 6 10 3 15 -9 13 -12 11 -12 -6z"/>
<path d="M4810 670 c0 -5 5 -10 10 -10 6 0 10 5 10 10 0 6 -4 10 -10 10 -5 0
-10 -4 -10 -10z"/>
<path d="M1195 660 c-4 -6 -11 -7 -17 -4 -7 4 -8 2 -4 -5 6 -9 11 -9 22 0 13
11 18 6 15 -14 -1 -5 3 -6 9 -2 8 5 7 11 -1 21 -14 17 -16 17 -24 4z"/>
<path d="M4426 635 c4 -8 11 -15 16 -15 6 0 5 6 -2 15 -7 8 -14 15 -16 15 -2
0 -1 -7 2 -15z"/>
<path d="M4815 641 c-3 -5 -2 -12 3 -15 5 -3 9 1 9 9 0 17 -3 19 -12 6z"/>
<path d="M1150 630 c0 -5 5 -10 10 -10 6 0 10 5 10 10 0 6 -4 10 -10 10 -5 0
-10 -4 -10 -10z"/>
<path d="M1085 619 c-4 -6 -5 -12 -2 -15 2 -3 7 2 10 11 7 17 1 20 -8 4z"/>
<path d="M1106 612 c-3 -5 1 -9 9 -9 8 0 12 4 9 9 -3 4 -7 8 -9 8 -2 0 -6 -4
-9 -8z"/>
<path d="M4540 603 c0 -19 21 -27 33 -13 9 10 9 11 -2 5 -8 -4 -17 -2 -22 6
-6 9 -9 10 -9 2z"/>
<path d="M750 596 c0 -2 7 -7 16 -10 8 -3 12 -2 9 4 -6 10 -25 14 -25 6z"/>
<path d="M1055 590 c-3 -5 -1 -10 4 -10 6 0 11 5 11 10 0 6 -2 10 -4 10 -3 0
-8 -4 -11 -10z"/>
<path d="M4575 570 c-3 -5 -1 -10 4 -10 6 0 11 5 11 10 0 6 -2 10 -4 10 -3 0
-8 -4 -11 -10z"/>
<path d="M950 559 c0 -5 -4 -8 -9 -5 -11 7 -8 -21 4 -31 4 -4 5 -3 1 4 -3 6 4
19 16 27 18 13 19 16 5 16 -9 0 -17 -5 -17 -11z"/>
<path d="M897 541 c-4 -17 -3 -21 5 -13 5 5 8 16 6 23 -3 8 -7 3 -11 -10z"/>
<path d="M4730 530 c0 -5 5 -10 11 -10 5 0 7 5 4 10 -3 6 -8 10 -11 10 -2 0
-4 -4 -4 -10z"/>
</g>
</svg>
